<?xml version="1.0" encoding="utf-8"?>
<!-- Generator: Adobe Illustrator 24.1.2, SVG Export Plug-In . SVG Version: 6.00 Build 0)  -->
<svg version="1.1" id="work" xmlns="http://www.w3.org/2000/svg" xmlns:xlink="http://www.w3.org/1999/xlink" x="0px" y="0px"
	 viewBox="0 0 2500 2500" style="enable-background:new 0 0 2500 2500;" xml:space="preserve">
<style type="text/css">
	.st0{fill-rule:evenodd;clip-rule:evenodd;fill:#FEA7A8;}
	.st1{fill:none;stroke:#09072B;stroke-width:2;}
	.st2{fill-rule:evenodd;clip-rule:evenodd;fill:#261A5E;}
	.st3{fill:none;stroke:#FFFFFF;stroke-width:2;}
	.st4{fill-rule:evenodd;clip-rule:evenodd;fill:#0F0B47;}
	.st5{opacity:0.3;fill:none;stroke:#FFFFFF;stroke-width:2;enable-background:new    ;}
	.st6{fill-rule:evenodd;clip-rule:evenodd;fill:#3D9BEF;}
	.st7{opacity:0.1;fill-rule:evenodd;clip-rule:evenodd;fill:#0F0B47;enable-background:new    ;}
	.st8{fill-rule:evenodd;clip-rule:evenodd;fill:#E19394;}
	.st9{fill-rule:evenodd;clip-rule:evenodd;fill:#372A7F;}
	.st10{fill-rule:evenodd;clip-rule:evenodd;fill:#54479C;}
	.st11{fill:none;stroke:#0F0B47;stroke-width:2;}
	.st12{fill:none;stroke:#372A7F;stroke-width:2;}
	.st13{fill-rule:evenodd;clip-rule:evenodd;fill:#FFFFFF;}
	.st14{fill:#FFD884;}
	.st15{fill:#FFBF41;}
	.st16{fill:#58B8C0;}
	.st17{fill:#EBD9EC;}
	.st18{fill-rule:evenodd;clip-rule:evenodd;fill:#B3DBC9;}
	.st19{fill-rule:evenodd;clip-rule:evenodd;fill:#BCE6D3;}
	.st20{fill-rule:evenodd;clip-rule:evenodd;fill:#F69800;}
	.st21{opacity:0.5;fill:none;stroke:#FFFFFF;stroke-width:2;enable-background:new    ;}
	.st22{opacity:0.2;fill-rule:evenodd;clip-rule:evenodd;fill:#261A5E;enable-background:new    ;}
	.st23{fill-rule:evenodd;clip-rule:evenodd;fill:#003E8C;}
	.st24{fill-rule:evenodd;clip-rule:evenodd;fill:#08234A;}
	.st25{fill-rule:evenodd;clip-rule:evenodd;fill:#FFFCF8;}
	.st26{fill-rule:evenodd;clip-rule:evenodd;fill:#DBD8FF;}
	.st27{fill-rule:evenodd;clip-rule:evenodd;fill:#C2C0E7;}
	.st28{fill-rule:evenodd;clip-rule:evenodd;fill:#3F38A2;}
	.st29{fill-rule:evenodd;clip-rule:evenodd;fill:#363082;}
	.st30{fill:none;stroke:#FFFFFF;stroke-width:2;stroke-linecap:round;}
	.st31{fill:none;stroke:#DBD8FF;stroke-width:2;stroke-linecap:round;}
	.st32{fill-rule:evenodd;clip-rule:evenodd;fill:#003E8C;stroke:#0F0B47;stroke-width:2;}
	.st33{fill-rule:evenodd;clip-rule:evenodd;fill:#4B55F3;}
	.st34{fill-rule:evenodd;clip-rule:evenodd;fill:#181364;}
	.st35{fill-rule:evenodd;clip-rule:evenodd;fill:#06041A;}
	.st36{opacity:0.6;fill:none;stroke:#FFFFFF;stroke-width:2;enable-background:new    ;}
	.st37{fill-rule:evenodd;clip-rule:evenodd;fill:#FFD422;}
	.st38{fill-rule:evenodd;clip-rule:evenodd;fill:#FFFFFF;stroke:#0F0B47;stroke-width:2;}
	.st39{fill-rule:evenodd;clip-rule:evenodd;fill:#FF0021;}
	.st40{fill:none;stroke:#0F0B47;stroke-width:2;stroke-linecap:round;}
	.st41{fill-rule:evenodd;clip-rule:evenodd;fill:#FEA7A8;stroke:#0F0B47;stroke-width:2;}
	.st42{fill-rule:evenodd;clip-rule:evenodd;fill:#EA0422;}
	.st43{fill-rule:evenodd;clip-rule:evenodd;fill:#0C0936;}
	.st44{fill-rule:evenodd;clip-rule:evenodd;fill:#F3A3A4;}
	.st45{fill-rule:evenodd;clip-rule:evenodd;fill:#0F0B47;stroke:#FFFFFF;stroke-width:2;}
	.st46{fill-rule:evenodd;clip-rule:evenodd;fill:#F7A4A5;}
	.st47{opacity:0.4;fill:none;stroke:#FFFFFF;stroke-width:2;enable-background:new    ;}
	.st48{fill-rule:evenodd;clip-rule:evenodd;fill:#0E8B80;}
	.st49{fill-rule:evenodd;clip-rule:evenodd;fill:#BF4A24;}
	.st50{fill:none;stroke:#FFFCF8;stroke-width:2;}
	.st51{fill:none;stroke:#BF4A24;stroke-width:2;}
	.st52{fill-rule:evenodd;clip-rule:evenodd;fill:#FF77A5;}
	.st53{fill-rule:evenodd;clip-rule:evenodd;fill:#FFC84B;}
	.st54{fill-rule:evenodd;clip-rule:evenodd;fill:#ECB947;}
	.st55{fill-rule:evenodd;clip-rule:evenodd;fill:#0C8076;}
	.st56{fill-rule:evenodd;clip-rule:evenodd;fill:#F9F9F9;}
	.st57{fill:none;stroke:#F9F9F9;stroke-width:2;}
	.st58{fill-rule:evenodd;clip-rule:evenodd;fill:#FF622D;}
	.st59{fill-rule:evenodd;clip-rule:evenodd;fill:#DB4F20;}
	.st60{fill-rule:evenodd;clip-rule:evenodd;fill:#006D85;}
	.st61{fill-rule:evenodd;clip-rule:evenodd;fill:#0094B4;}
	.st62{fill-rule:evenodd;clip-rule:evenodd;fill:#733014;}
	.st63{fill:none;stroke:#733014;stroke-width:2;}
	.st64{opacity:0.1;fill-rule:evenodd;clip-rule:evenodd;enable-background:new    ;}
	.st65{fill-rule:evenodd;clip-rule:evenodd;}
	.st66{fill:none;stroke:#000000;stroke-width:2;}
	.st67{fill-rule:evenodd;clip-rule:evenodd;fill:#4267FF;}
	.st68{fill-rule:evenodd;clip-rule:evenodd;fill:#E19495;}
	.st69{fill-rule:evenodd;clip-rule:evenodd;fill:#202746;}
	.st70{fill-rule:evenodd;clip-rule:evenodd;fill:#2945BB;}
	.st71{fill-rule:evenodd;clip-rule:evenodd;fill:#774033;}
	.st72{fill:none;stroke:#774033;stroke-width:2;}
	.st73{fill-rule:evenodd;clip-rule:evenodd;fill:#EEA013;}
	.st74{fill-rule:evenodd;clip-rule:evenodd;fill:#DB9311;}
	.st75{fill-rule:evenodd;clip-rule:evenodd;fill:#3E60EB;}
	.st76{opacity:0.1;fill-rule:evenodd;clip-rule:evenodd;fill:#FFFFFF;enable-background:new    ;}
	.st77{fill:none;stroke:#261A5E;stroke-width:2;}
	.st78{fill-rule:evenodd;clip-rule:evenodd;fill:#FF5D5C;}
	.st79{fill-rule:evenodd;clip-rule:evenodd;fill:#D95150;}
	.st80{fill-rule:evenodd;clip-rule:evenodd;fill:#03CEFA;}
	.st81{fill-rule:evenodd;clip-rule:evenodd;fill:#03BCE4;}
	.st82{fill-rule:evenodd;clip-rule:evenodd;fill:#402E92;}
	.st83{fill-rule:evenodd;clip-rule:evenodd;fill:#DC678F;}
	.st84{fill-rule:evenodd;clip-rule:evenodd;fill:#98C3AF;}
	.st85{fill-rule:evenodd;clip-rule:evenodd;fill:#19D9EB;}
	.st86{fill-rule:evenodd;clip-rule:evenodd;fill:#13C3D3;}
	.st87{fill-rule:evenodd;clip-rule:evenodd;fill:#10A6B4;}
	.st88{fill-rule:evenodd;clip-rule:evenodd;fill:#FEDD00;}
	.st89{fill-rule:evenodd;clip-rule:evenodd;fill:#358BD7;}
	.st90{fill-rule:evenodd;clip-rule:evenodd;fill:#017F5D;}
	.st91{opacity:0.2;fill:none;stroke:#FFFFFF;stroke-width:2;enable-background:new    ;}
	.st92{fill-rule:evenodd;clip-rule:evenodd;fill:#00976F;}
	.st93{fill-rule:evenodd;clip-rule:evenodd;fill:#FF2200;}
	.st94{fill-rule:evenodd;clip-rule:evenodd;fill:#EE2304;}
	.st95{opacity:0.1;fill-rule:evenodd;clip-rule:evenodd;fill:#002C46;enable-background:new    ;}
	.st96{fill-rule:evenodd;clip-rule:evenodd;fill:#FF81C3;}
	.st97{opacity:0.3;fill-rule:evenodd;clip-rule:evenodd;fill:#BD461E;enable-background:new    ;}
	.st98{fill-rule:evenodd;clip-rule:evenodd;fill:#2F170B;}
	.st99{fill-rule:evenodd;clip-rule:evenodd;fill:#FFC09F;}
	.st100{opacity:0.2;fill-rule:evenodd;clip-rule:evenodd;fill:#6A3D25;enable-background:new    ;}
	.st101{fill-rule:evenodd;clip-rule:evenodd;fill:#6A3D25;}
	.st102{fill-rule:evenodd;clip-rule:evenodd;fill:#284BF2;}
	.st103{fill-rule:evenodd;clip-rule:evenodd;fill:#EB5D2D;}
	.st104{fill-rule:evenodd;clip-rule:evenodd;fill:#FFB34D;}
	.st105{opacity:0.2;fill-rule:evenodd;clip-rule:evenodd;fill:#2F170B;enable-background:new    ;}
	.st106{opacity:0.3;fill-rule:evenodd;clip-rule:evenodd;fill:#2F170B;enable-background:new    ;}
	.st107{fill:none;stroke:#2F170B;stroke-width:2;}
	.st108{fill-rule:evenodd;clip-rule:evenodd;fill:#FF5A59;}
	.st109{fill-rule:evenodd;clip-rule:evenodd;fill:#E94E4D;}
</style>
<g id="_x35_---girl-eat-ice-cream-while-standing-or-sitting">
	<g transform="translate(267.000000, 96.000000)">
		<polygon id="Path-110-Copy" class="st4" points="881.6,323.8 590.8,1066.2 614.2,1066.2 897.1,330.6 		"/>
		<path id="Path-107" class="st46" d="M1142.9,586.1l71.3,99.6c21.4,29.8,53.3,50.3,89.4,57.3c33.7,6.5,67.8-8.7,85.5-38.1
			l12.1-20.2l0,0l-157.5-189L1142.9,586.1z"/>
		<g id="Group-7_10_" transform="translate(55.324958, 186.408285)">
			
				<g id="Group-5-Copy_8_" transform="translate(152.052388, 383.110572) rotate(5.000000) translate(-152.052388, -383.110572) translate(97.552388, 349.110572)">
				<g id="Group-4_22_" transform="translate(0.556221, 0.079345)">
					
						<rect id="Rectangle_34_" x="1064.5" y="1435.9" transform="matrix(-0.9903 0.1392 -0.1392 -0.9903 2489.2927 2832.9026)" class="st0" width="162.3" height="135.2"/>
					<path id="Path-17_13_" class="st1" d="M1296,1528.3c9.5-62.6,24.9-92.4,46.4-89.6s4.4,40.3-51,112.3
						c42.8-88.8,73.3-118.8,91.5-89.8c8.7,13.9-13.6,51.5-82.1,90"/>
					<path id="Path-16_13_" class="st2" d="M1064.1,1550l188.4-70c17,25,39.8,43,68.3,53.8c42.8,16.2,108.9,27.7,146.2,109.4
						l-257.9,26.2l-38.8-26.2v26.2l-106.2,11.9V1550z"/>
					<g id="Group-9_14_" transform="translate(48.710331, 23.066335)">
						<line id="Path-25_13_" class="st3" x1="1192.1" y1="1524.5" x2="1251.8" y2="1489.2"/>
						<line id="Path-25-Copy_13_" class="st3" x1="1218.2" y1="1534.5" x2="1277.9" y2="1499.1"/>
						<line id="Path-25-Copy-2_13_" class="st3" x1="1244.3" y1="1544.4" x2="1304" y2="1509"/>
					</g>
				</g>
			</g>
			<g id="Group-6_10_" transform="translate(14.589417, 348.591715)">
				<rect id="Rectangle_33_" x="701" y="1520.8" class="st0" width="139.1" height="135.2"/>
				<path id="Path-109_5_" class="st2" d="M702.5,1602.9l-4,11.3c-14.7,41.5-22.2,85.1-22.2,129.1v41.2l0,0h193.2l-4.9-69.8
					c-1.8-25.1-6-50-12.6-74.4l-10.2-37.4l0,0H702.5z"/>
				<line id="Path-5_13_" class="st3" x1="713" y1="1692.8" x2="822.8" y2="1692.8"/>
				<line id="Path-5-Copy_5_" class="st3" x1="713" y1="1665.7" x2="822.8" y2="1665.7"/>
				<line id="Path-5-Copy-2_5_" class="st3" x1="713" y1="1634.8" x2="822.8" y2="1634.8"/>
			</g>
			<g id="Group-3_10_">
				<path id="Path-108_1_" class="st28" d="M794.2,526.3l-7.3,43.6c-61.4,119.8-99.2,265.4-113.3,436.8s-27.1,474.2-39.2,908.4
					h281.3l22-1035.9L978.3,1915h294.6c-34.1-448.2-62.8-751-86.1-908.4s-61.1-303-113.3-436.8l-12.7-47.4L794.2,526.3z"/>
				<path id="Path_111_" class="st2" d="M937.6,881.9L935,775l5.6,32.2c90.3,522.6,137.8,891.9,142.7,1107.8h-105L937.7,879.2
					L937.6,881.9z"/>
				<path id="Path-117_1_" class="st47" d="M690.8,1911.7C690.5,1187.2,734.3,742.5,822,577.6"/>
				<path id="Path-117-Copy_1_" class="st47" d="M737.2,1911.7c-0.3-724.5,43.4-1169.2,131.2-1334.2"/>
			</g>
		</g>
		<path id="Path-103" class="st48" d="M935.6,305.3l131,2.7c16.2,0.3,32.1,4,46.8,10.8c14.7,6.8,27.7,16.7,38.1,29.1l132.5,157l0,0
			l-129.3,79c1.3,35.9-9.2,64.1-31.4,84.5v65.1c-64.9,8.8-114.3,13.3-148.4,13.3s-77-4.4-129-13.3l-37.1-155.2l-143-104.7
			l111.3-120.1c20.6-22.2,48-36.9,77.9-41.6l12.2-1.9C889.8,306.4,912.7,304.9,935.6,305.3z"/>
		<g id="Group-8_8_" transform="translate(181.320150, 45.000000)">
			<g id="icecream_1_">
				<g id="Group_17_" transform="translate(2.052000, 23.328000)">
					<path id="Path_110_" class="st14" d="M1033.3,283.1l-32-98.6h77.5l-32.2,98.6c-1.4,3.7-5.5,5.5-9.2,4.2
						C1035.6,286.6,1034.1,285,1033.3,283.1z"/>
					<polygon id="Path_109_" class="st14" points="1078.9,184.5 1066,184.5 1070.2,188.8 1019.3,239.7 1023.5,252.8 1072.7,203.6 
											"/>
					<polygon id="Path_108_" class="st14" points="1001.4,184.5 1010.4,212.4 1038.3,184.5 					"/>
					<polygon id="Path_107_" class="st14" points="1039.3,184.5 1043.5,188.8 1012.7,219.6 1017,232.6 1065,184.5 					"/>
					<path id="Path_106_" class="st14" d="M1033.3,283.1c1.4,3.7,5.5,5.5,9.2,4.2c1.9-0.7,3.4-2.2,4.2-4.2l8.4-25.8l-22.7,22.7
						L1033.3,283.1z"/>
					<polygon id="Path_105_" class="st14" points="1025.8,259.9 1030,272.9 1059.7,243.3 1068.1,217.6 					"/>
				</g>
				<polygon id="Path_104_" points="1067.6,207.4 1067.1,207.9 1068,207.9 				"/>
				<g id="Group_16_" transform="translate(6.048000, 23.328000)">
					<polygon id="Path_103_" class="st15" points="1062,184.5 1061,184.5 1013,232.6 1015.3,239.7 1066.2,188.8 					"/>
					<polygon id="Path_102_" class="st15" points="1068.7,203.6 1019.5,252.8 1021.8,259.9 1064.1,217.6 					"/>
					<polygon id="Path_101_" class="st15" points="1028.4,280.1 1051.1,257.3 1055.7,243.3 1026.1,272.9 					"/>
				</g>
				<polygon id="Path_100_" points="1040.9,207.4 1040.4,207.9 1041.3,207.9 				"/>
				<polygon id="Path_99_" class="st15" points="1041.3,207.9 1040.4,207.9 1012.5,235.8 1014.8,242.9 1045.6,212.1 				"/>
				<path id="Path_98_" class="st16" d="M1082.1,200.9h-0.2c0.1-1.1,0.2-2.2,0.2-3.3c0-8.4-2.6-16.6-7.6-23.4h-65
					c-4.9,6.8-7.6,15-7.6,23.4c0,1.1,0.1,2.2,0.2,3.3h-0.2c-3.7,0-6.7,3-6.7,6.7c0,3.7,3,6.7,6.7,6.7h66.8v13.4c0,3.7,3,6.7,6.7,6.7
					s6.7-3,6.7-6.7v-13.4c3.7,0,6.7-3,6.7-6.7C1088.8,203.9,1085.8,200.9,1082.1,200.9z"/>
				<path id="Path_97_" class="st17" d="M1082.1,160.8h-0.2c0.1-1.1,0.2-2.2,0.2-3.3c0-22.1-17.9-40.1-40.1-40.1
					c-22.1,0-40.1,17.9-40.1,40.1c0,1.1,0.1,2.2,0.2,3.3h-0.2c-3.7,0-6.7,3-6.7,6.7s3,6.7,6.7,6.7h13.4v6.7c0,3.7,3,6.7,6.7,6.7
					s6.7-3,6.7-6.7v-6.7h53.4c3.7,0,6.7-3,6.7-6.7S1085.8,160.8,1082.1,160.8z"/>
			</g>
			<path id="Path-106" class="st0" d="M1011.7,247l10.3,5.7c10.6,5.9,20.6,12.7,29.9,20.5l3.5,2.9l0,0l-0.5-1.1
				c-5.9-13.2-16.1-24-28.9-30.6l-12.3-6.3c-4.2-2.2-6-7.3-4-11.6c1.9-4.1,6.9-5.9,11-4c0.1,0,0.1,0.1,0.2,0.1l15.8,7.8
				c13.6,6.7,26.3,15.1,37.9,24.9l6.7,5.7c6.9,5.9,11.7,13.9,13.5,22.8c1.9,9,1.3,18.3-1.7,26.9l-4,11.3
				c-5.5,15.6-3.8,32.7,4.6,46.9l125.1,211.5c16.3,27.6,13.6,62.4-6.7,87.1l-3.8,4.7c-17.2,20.9-47.2,26-70.3,11.8l-3.6-2.2
				c-23.4-14.4-39.8-37.8-45.3-64.7l-7.6-37.2c-0.7-3.4-1.4-6.7-2.2-10l-48.8-210.5l0,0c-7.6-13.3-8.5-26.8-2.7-40.7l-19.1-11.5
				c-2.9-1.8-4.1-5.4-2.7-8.5c1.2-2.7,4.4-4,7.1-2.8c0.1,0.1,0.3,0.1,0.4,0.2l21.9,11.9l0,0l-10.3-11.1
				c-5.1-5.5-10.8-10.3-17.1-14.3l-4.3-2.8c-2.9-1.9-4.1-5.6-2.6-8.8c1.2-2.7,4.5-4,7.2-2.7c0.2,0.1,0.4,0.2,0.5,0.3l5.5,3.3
				c7.1,4.3,14.1,8.8,20.8,13.7l10.7,7.8l0,0l-8.9-11.4c-6-7.7-13.6-14.2-22.2-18.9l-7.4-4.1c-3.2-1.8-4.7-5.6-3.4-9.1
				c1-2.8,4.2-4.3,7-3.3C1011.2,246.7,1011.4,246.8,1011.7,247z"/>
			<path id="Path-112" class="st11" d="M1055.5,473c20.6,114.6,42.9,180.3,66.8,197.1"/>
			<line id="Path-113" class="st11" x1="1038.9" y1="251.9" x2="1056.5" y2="274.5"/>
			<line id="Path-114" class="st11" x1="1030.2" y1="272.3" x2="1047.7" y2="295.9"/>
			<line id="Path-115" class="st11" x1="1022.4" y1="292.9" x2="1037.9" y2="311.2"/>
			<line id="Path-116" class="st11" x1="1025.1" y1="317" x2="1028.5" y2="320.2"/>
		</g>
		<path id="Path_96_" class="st7" d="M861.4,496.8c-2.7,94.7,25.8,144.2,85.5,148.4l7.5,0.5c80.7,5.3,162,5.6,195.7-20.6
			c-5,17.1-13.9,31.5-26.8,43.4v65.1l-10.3,1.4c-59.8,7.9-105.9,11.9-138.1,11.9c-34.1,0-77-4.4-129-13.3l-35.9-150l1.7-7.6
			L861.4,496.8z"/>
		<path id="Path_95_" class="st4" d="M1107.4,316.3L942.3,745.6c-6.6-0.4-13.4-1-20.5-1.7l169.5-432.8
			C1096.8,312.5,1102.2,314.2,1107.4,316.3z"/>
		<g id="Group-4_21_" transform="translate(80.320150, 0.000000)">
			<g id="Group-2_15_">
				<path id="Path-99_1_" class="st49" d="M1000.7,169.9c18.7-48.8,11.3-85.5-22.2-110.1c-50.3-36.9-124.8-8.8-152.1,34.1
					c-27.3,43-34.7,135.7,43.6,126C922.1,213.4,965.7,196.8,1000.7,169.9z"/>
				<ellipse id="Oval_36_" class="st49" cx="781.3" cy="63.4" rx="75.3" ry="74.8"/>
				<path id="Path-98_2_" class="st0" d="M1004.7,127.4l1.6,89.5c0.2,12.7-7.2,24.3-18.8,29.3c-12.4,5.4-26.3,6.2-39.2,2.1l-6.5-2
					l0,0l7.2,68.9c2.8,27.1-16.9,51.4-44,54.3c-1.7,0.2-3.4,0.3-5.1,0.3c-27.4,0-49.7-22.2-49.7-49.7c0-1.6,0.1-3.3,0.2-4.9
					l6.7-67.8c2.3-23.3-1-46.8-9.7-68.5l0,0l0,0c-17.8-12.3-24.1-24-18.8-34.9c7.9-16.4,32.1-1.5,32.1,3.7
					c47.2,8.1,81.7-11.1,103.5-57.5c20.9-1.5,39,14.2,40.5,35C1004.7,126,1004.7,126.7,1004.7,127.4z"/>
				<path id="Path_94_" class="st8" d="M895,214.9c15.6,14.7,31.2,25.2,46.8,31.5l6.9,66.2L895,214.9z"/>
				<ellipse id="Oval_35_" class="st25" cx="846.1" cy="181.9" rx="10.5" ry="10.4"/>
				<path id="Path-100_2_" class="st11" d="M835.5,157.4c-1.5-7.4,0.4-11.5,5.8-12.3s9.4,3.4,12.1,12.3"/>
				<path id="Path-101_2_" class="st11" d="M975,153.2c0.3,15.5,3.6,25.2,10,29.1c9.6,5.8,0,23.1-15.1,16.1"/>
				<ellipse id="Oval_34_" class="st4" cx="950.7" cy="161.1" rx="6.3" ry="6.2"/>
				<path id="Rectangle-Copy_9_" class="st4" d="M956.7,135.4l-25.2,4.9c-2.1,0.4-3.4,2.4-3,4.5c0,0,0,0,0,0.1
					c0.5,2.1,2.5,3.5,4.6,3.1l25.2-4.9c2.1-0.4,3.4-2.4,3-4.5c0,0,0,0,0-0.1C960.9,136.3,958.8,134.9,956.7,135.4z"/>
				<path id="Rectangle-Copy-2_13_" class="st4" d="M979.1,135.4l25.2,4.9c2.1,0.4,3.4,2.4,3,4.5c0,0,0,0,0,0.1
					c-0.5,2.1-2.5,3.5-4.6,3.1l-25.2-4.9c-2.1-0.4-3.4-2.4-3-4.5c0,0,0,0,0-0.1C974.9,136.3,977,134.9,979.1,135.4z"/>
				<ellipse id="Oval-Copy-2_6_" class="st4" cx="992.5" cy="161.1" rx="6.3" ry="6.2"/>
				<path id="Path-102_1_" class="st11" d="M948.7,200c4.4,13,14.6,18,30.7,14.9"/>
				<path id="Path-3_11_" class="st50" d="M812.7,131.6c11.9-23.8,26.5-44.6,43.9-62.4"/>
				<path id="Path-6_10_" class="st51" d="M706,96.7c26.3,46.5,61.8,58.2,106.6,34.9"/>
			</g>
		</g>
		<polygon id="Path-110" class="st4" points="1032.4,461.7 795.6,1066.2 819,1066.2 1048.2,470.2 		"/>
		<path id="Path-111" class="st4" d="M614.6,905.4h320.1l-50,187.6c-13.1,49.1-57.5,83.2-108.3,83.2h-95
			c-61.9,0-112.1-50.2-112.1-112.1c0-11.6,1.8-23.1,5.3-34.2L614.6,905.4L614.6,905.4z"/>
		<path id="Path-111-Copy" class="st3" d="M638,931.4h255.3l-39.8,149.8c-10.4,39.3-46,66.6-86.6,66.6h-75.3
			c-49.5,0-89.6-40.1-89.6-89.6c0-9.3,1.4-18.5,4.3-27.3L638,931.4L638,931.4z"/>
		<g id="Group-5_13_" transform="translate(0.000000, 127.799493)">
			<path id="Path-104_1_" class="st0" d="M678.5,354.6L510.1,569.3c-20.9,26.6-24.9,62.8-10.3,93.4c14.7,30.8,44.9,51.2,79,53.4
				l150.3,9.7c25.9,1.7,50.9,10.4,72.2,25.2l4.8,3.3c18.5,12.9,38.3,23.6,59.2,32l25.7,10.3c3.1,1.2,6.6-0.3,7.8-3.3
				c0,0,0-0.1,0.1-0.1c1.2-3.3-0.2-7-3.3-8.7l-36.3-19.9l0,0l36.4,1.6c8,0.3,15.2-4.6,17.8-12.1l0,0l0,0c5-2.2,9-6.2,11.2-11.2
				l0.6-1.3c2.2-4.8,0-10.5-4.9-12.7c-0.1,0-0.2-0.1-0.3-0.1l-27-11l0,0l37.1,5.5c5.7,0.8,11.2-2.4,13.1-7.8
				c1.7-4.7-0.7-9.9-5.4-11.7c-0.2-0.1-0.4-0.2-0.7-0.2l-44.2-12.5l0,0l7.5-21.2l-55.3-3.9l-49.8-5.7l-150.4-39.6l163.5-169.9
				L678.5,354.6z"/>
			<line id="Path-105_1_" class="st11" x1="868.5" y1="743.4" x2="913.6" y2="753.9"/>
			<line id="Path-4_12_" class="st11" x1="861.4" y1="679.4" x2="893.3" y2="690.9"/>
			<path id="Path-2_12_" class="st11" d="M547.7,617.8c35.5-8.7,68-7.8,97.6,2.6"/>
		</g>
		<polygon id="Path-118" class="st4" points="1179.7,568.8 1118.3,496.8 1154.8,583.9 		"/>
		<line id="Path-119" class="st11" x1="810.1" y1="579" x2="858.1" y2="503.4"/>
	</g>
</g>
</svg>
