<?xml version="1.0" encoding="utf-8"?>
<!-- Generator: Adobe Illustrator 24.3.0, SVG Export Plug-In . SVG Version: 6.00 Build 0)  -->
<svg version="1.1" id="work" xmlns="http://www.w3.org/2000/svg" xmlns:xlink="http://www.w3.org/1999/xlink" x="0px" y="0px"
	 viewBox="0 0 2500 2500" style="enable-background:new 0 0 2500 2500;" xml:space="preserve">
<style type="text/css">
	.st0{fill-rule:evenodd;clip-rule:evenodd;fill:#B3DBC9;}
	.st1{fill-rule:evenodd;clip-rule:evenodd;fill:#BCE6D3;}
	.st2{fill-rule:evenodd;clip-rule:evenodd;fill:#FEA7A8;}
	.st3{fill:none;stroke:#09072B;stroke-width:2;}
	.st4{fill-rule:evenodd;clip-rule:evenodd;fill:#261A5E;}
	.st5{fill:none;stroke:#FFFFFF;stroke-width:2;}
	.st6{fill-rule:evenodd;clip-rule:evenodd;fill:#F69800;}
	.st7{opacity:0.5;fill:none;stroke:#FFFFFF;stroke-width:2;enable-background:new    ;}
	.st8{opacity:0.2;fill-rule:evenodd;clip-rule:evenodd;fill:#261A5E;enable-background:new    ;}
	.st9{fill-rule:evenodd;clip-rule:evenodd;fill:#003E8C;}
	.st10{fill-rule:evenodd;clip-rule:evenodd;fill:#08234A;}
	.st11{fill:none;stroke:#0F0B47;stroke-width:2;}
	.st12{fill-rule:evenodd;clip-rule:evenodd;fill:#0F0B47;}
	.st13{fill-rule:evenodd;clip-rule:evenodd;fill:#FFFFFF;}
	.st14{fill-rule:evenodd;clip-rule:evenodd;fill:#E19394;}
	.st15{fill-rule:evenodd;clip-rule:evenodd;fill:#DBD8FF;}
	.st16{fill-rule:evenodd;clip-rule:evenodd;fill:#C2C0E7;}
	.st17{fill-rule:evenodd;clip-rule:evenodd;fill:#3F38A2;}
	.st18{fill-rule:evenodd;clip-rule:evenodd;fill:#363082;}
	.st19{fill:none;stroke:#FFFFFF;stroke-width:2;stroke-linecap:round;}
	.st20{fill:none;stroke:#DBD8FF;stroke-width:2;stroke-linecap:round;}
	.st21{fill-rule:evenodd;clip-rule:evenodd;fill:#003E8C;stroke:#0F0B47;stroke-width:2;}
</style>
<g id="_x36_---girl-reads-a-book-while-sitting_1_">
	<g transform="translate(202.000000, 167.000000)">
		<g id="Group-10_6_" transform="translate(119.000000, 240.000000)">
			<circle id="Oval_42_" class="st0" cx="1157.3" cy="1324.9" r="559.7"/>
			<path id="Path_120_" class="st1" d="M1262.4,894.5c145.3,0,277.7,55.4,377.2,146.2c49.2,83.3,77.4,180.5,77.4,284.2
				c0,309.1-250.6,559.7-559.7,559.7c-145.3,0-277.7-55.4-377.2-146.2c-49.2-83.3-77.4-180.5-77.4-284.2
				C702.7,1145.1,953.3,894.5,1262.4,894.5z"/>
		</g>
		<g id="Group-5_4_" transform="translate(0.000000, 172.958512)">
			<g id="Group-3_12_" transform="translate(0.606506, 0.041488)">
				
					<g id="Group-5-Copy_10_" transform="translate(53.319516, 318.546919) scale(-1, 1) rotate(5.000000) translate(-53.319516, -318.546919) translate(2.819516, 286.546919)">
					<g id="Group-4_27_" transform="translate(0.518188, 0.073931)">
						<polygon id="Rectangle_9_" class="st2" points="-413.6,1486.2 -257,1464.1 -238.7,1594.7 -395.3,1616.7 						"/>
						<path id="Path-17_22_" class="st3" d="M-179.7,1564.6c9.2-61,24.3-90.1,45.2-87.3c20.9,2.8,4.3,39.3-49.7,109.5
							c41.7-86.6,71.4-115.8,89.1-87.5c8.5,13.5-13.2,50.2-80,87.7"/>
						<path id="Path-16_22_" class="st4" d="M-405.5,1585.8l183.6-68.3c16.6,24.4,38.8,41.9,66.5,52.4
							c41.7,15.8,106.1,27,142.5,106.6l-251.3,25.6l-37.8-25.6v25.6l-103.4,11.6L-405.5,1585.8z"/>
						<g id="Group-9_22_" transform="translate(45.379710, 21.492254)">
							<line id="Path-25_22_" class="st5" x1="-278.8" y1="1561.9" x2="-220.6" y2="1527.4"/>
							<line id="Path-25-Copy_22_" class="st5" x1="-253.4" y1="1571.6" x2="-195.2" y2="1537.1"/>
							<line id="Path-25-Copy-2_22_" class="st5" x1="-227.9" y1="1581.3" x2="-169.7" y2="1546.8"/>
						</g>
					</g>
				</g>
				
					<g id="Group-5-Copy-2_4_" transform="translate(258.239156, 318.116803) scale(-1, 1) rotate(5.000000) translate(-258.239156, -318.116803) translate(207.739156, 285.616803)">
					<g id="Group-4_26_" transform="translate(0.518188, 0.073931)">
						<polygon id="Rectangle_8_" class="st2" points="-997.1,1538.1 -840.5,1516.1 -859.7,1649.9 -1016.2,1671.9 						"/>
						<path id="Path-17_21_" class="st3" d="M-800.6,1619.9c9.2-61,24.3-90.1,45.2-87.3c20.9,2.8,4.3,39.3-49.7,109.5
							c41.7-86.6,71.4-115.8,89.1-87.5c8.5,13.5-13.2,50.2-80,87.7"/>
						<path id="Path-16_21_" class="st4" d="M-1026.5,1641l183.6-68.3c16.6,24.4,38.8,41.9,66.5,52.4
							c41.7,15.8,106.1,27,142.5,106.6l-251.3,25.6l-37.8-25.6v25.6l-103.4,11.6L-1026.5,1641L-1026.5,1641z"/>
						<g id="Group-9_21_" transform="translate(45.379710, 22.424013)">
							<line id="Path-25_21_" class="st5" x1="-899.8" y1="1616.2" x2="-841.6" y2="1581.8"/>
							<line id="Path-25-Copy_21_" class="st5" x1="-874.3" y1="1625.9" x2="-816.1" y2="1591.4"/>
							<line id="Path-25-Copy-2_21_" class="st5" x1="-848.9" y1="1635.6" x2="-790.7" y2="1601.1"/>
						</g>
					</g>
				</g>
				<path id="Path-137_1_" class="st6" d="M1435.2,561.4l74.6,139.8c21.4,40,29.6,85.8,23.4,130.7c-6,44.3-29.3,84.4-64.7,111.6
					L1253.1,1109l0,0l300.8,660.7h-340.2l-242.6-498.5c-33.6-69-46.8-146.2-38.2-222.4l3.8-33.2l0,0l-158.2,17.3l-62.1,736.8h-321
					l77.7-838.6c5-54.2,25.5-105.8,59-148.7c32.6-41.7,81.7-67.3,134.6-70l352.8-18.1c53.7-2.8,99.8-39.2,114.9-90.9l0,0l0,0
					L1435.2,561.4z"/>
				<path id="Path-146_1_" class="st7" d="M1396.2,633.5l41.3,99.3c10,24,12.8,50.5,7.9,76.1c-4.8,25.3-18.4,48.2-38.4,64.4
					l-271.8,221.1c-11.8,9.6-18.6,23.9-18.6,39.1c0,15.7,4,31.2,11.5,44.9l324.6,591.3l0,0"/>
				<polygon id="Path_119_" class="st8" points="1253.4,1109.6 1553.9,1769.7 1187.1,1152 				"/>
				<polygon id="Path-145_1_" class="st8" points="1153.1,769.7 936.7,1015.6 778.5,1032.9 716.4,1769.7 722.5,1023.2 778.5,1015.6 
									"/>
				<path id="Path-4_4_" class="st7" d="M635.1,1769.7l36.8-731.5c1.1-22.2,14.3-42,34.4-51.6l410.5-196.3l0,0"/>
			</g>
		</g>
		<path id="Path-131_1_" class="st9" d="M1450.2,776.8l42.1,27c-84.5,29.6-166,44.5-244.3,44.5s-126.7-10.8-145.1-32.3v-39.2
			l-37,33.5c-26.3,23.9-62.4,33.8-97.2,26.8c-36.1-7.2-69.2-25.1-95.1-51.3L681.3,591.7l0,0l98.3-119.3l171.3,147.3L1060.7,402
			c15.2-30.2,43.1-51.9,76.1-59.2l8.8-2c28.7-6.4,58.1-9.6,87.5-9.6h118.5c36.3,0,72.5,4.9,107.6,14.6l8.1,2.2
			c38.5,10.6,70.2,38.2,86,74.8l87.5,202.2c1.1,2.5,2.2,5,3.4,7.5l21.3,46.6c14.2,31.1,10.8,67.5-9,95.4l-10.1,14.3
			c-24.4,34.4-69.9,46.5-108.2,28.7L1450.2,776.8L1450.2,776.8z"/>
		<path id="Path_118_" class="st10" d="M1102.9,806.5c80.9,31.2,144.3,25.2,190.4-17.8l1.4-1.3l-105.8-129.7L1452,777.9l51.9,23.8
			c-84.5,29.6-177.6,46.6-255.9,46.6h-5.4c-75.1-0.5-121.7-11.3-139.7-32.3V806.5z"/>
		<path id="Path_52_" class="st10" d="M1102.9,448.8l14.4,68.5c-13.4,9-22.6,22.2-27.5,39.6c-7.4,26.1,2.5,60.8,27.5,82.1
			l-14.8,138.2l-36.5,33.2c-26.3,23.9-62.4,33.8-97.2,26.8c-19.3-3.9-37.8-10.8-54.7-20.4l-4.5-3.2c54.1,17.3,91.8,20.3,113,9
			c60.6-32.1,67.2-74.1,67.2-129.6l-8.9-86.8c-1.8-17.3-1.9-34.8-0.2-52.2l0.7-7.3c1.1-11.4,7.2-21.8,16.7-28.2l1.1-0.7
			c9.6-6,14.5-17.4,12.2-28.5L1102.9,448.8z"/>
		<path id="Path-149_1_" class="st5" d="M1089.9,585c0,21.6,9.2,39.7,27.5,54L1103,776.8"/>
		<path id="Path_51_" class="st2" d="M1351.6,331.3c16,0,32,1,47.8,2.8c-25.7,51.8-62.6,77.7-110.6,77.7
			c-51.9,0-84.8-26.1-98.9-78.2c14.3-1.6,28.8-2.3,43.2-2.3H1351.6z"/>
		
			<g id="Group-4_25_" transform="translate(260.606506, 44.500000) scale(-1, 1) translate(-260.606506, -44.500000) translate(225.606506, 0.000000)">
			<g id="Group-2_18_">
				<path id="Path-134_1_" class="st11" d="M-871.8,73.8c19.3,16.3,12.1,46.7-21.4,91.2"/>
				<path id="Path-135_1_" class="st11" d="M-893.2,175.3c25.6,29.4,38.9,69.1,39.9,118.8"/>
				<path id="Path_50_" class="st12" d="M-1020.6,47.2c46-17.2,86.7-10.3,122.3,20.5c30.5-11.3,42.7,12.9,27.3,54.4l-0.9,2.3
					c-3.7,9.6-10.8,26.6-21.4,50.9c20.1,25.2,32.2,65.4,36.2,120.6c-5.2,7.2-12.5,13.2-22,18.1l-4.4-34v36.1
					c-12.8,5.7-29.1,9.6-48.8,11.6l-5.5-20.9v21.4c-9.2,0.8-19.2,1.1-29.9,1.1c-38.6,0-76-5-112.1-15l2.5-19.8l-7.4,18.4
					c-16.1-4.7-31.9-10.4-47.5-17c7.6-33.4,15.6-58.7,24-76c6-12.3,19.5-31.4,40.6-57.1C-1067.6,85.5-1045.9,64.8-1020.6,47.2z"/>
				<path id="Path-98_4_" class="st2" d="M-887.6,107.7l2.2,126c0.2,13.3-7.5,25.4-19.7,30.7c-12.9,5.7-27.5,6.4-41,2.2l-6.7-2.1
					l0,0l7.5,72.1c3,28.4-17.7,53.8-46,56.8c-1.8,0.2-3.6,0.3-5.4,0.3c-28.7,0-51.9-23.3-51.9-51.9c0-1.7,0.1-3.4,0.3-5.1l9.9-99.3
					c0.6-5.8,1.4-11.5,2.4-17.2l4.8-26l0,0c-18.6-12.9-25.2-25.1-19.7-36.5c8.2-17.2,33.5-1.6,33.5,3.9
					c66.8-8.4,106.9-29.7,120.3-64.1C-891.8,97.8-887.7,102.3-887.6,107.7z"/>
				<path id="Path-133_1_" class="st13" d="M-913.5,231.6l-32.1-11.6c-1.9,9.3,0.9,15.7,8.6,19.1
					C-929.3,242.5-921.5,240-913.5,231.6z"/>
				<path id="Path_49_" class="st14" d="M-1001.8,231.6c16.3,15.4,32.6,26.3,49,32.9l7.2,69.2L-1001.8,231.6z"/>
				<path id="Oval_41_" class="st13" d="M-1032.7,207.9c6,0,10.9-4.9,10.9-10.9s-4.9-10.9-10.9-10.9s-10.9,4.9-10.9,10.9
					S-1038.7,207.9-1032.7,207.9z"/>
				<path id="Path-100_4_" class="st11" d="M-1043.8,171.4c-1.6-7.8,0.4-12.1,6.1-12.8c5.6-0.8,9.8,3.5,12.6,12.8"/>
				<path id="Path-101_4_" class="st11" d="M-918.1,167c0.3,16.2,3.8,26.4,10.5,30.4c10.1,6.1,0,24.2-15.8,16.8"/>
				<path id="Oval_40_" class="st12" d="M-943.5,175.3c3.6,0,6.6,0,6.6,0S-939.9,175.3-943.5,175.3s-6.6,0-6.6,0
					S-947.1,175.3-943.5,175.3z"/>
				<path id="Rectangle-Copy_14_" class="st12" d="M-937.2,136.2l-26.4,5.1c-2.2,0.4-3.6,2.5-3.2,4.7c0,0,0,0,0,0.1
					c0.5,2.2,2.6,3.6,4.8,3.2l26.4-5.1c2.2-0.4,3.6-2.5,3.2-4.7c0,0,0,0,0-0.1C-932.9,137.2-935,135.8-937.2,136.2z"/>
				<circle id="Oval_14_" class="st11" cx="-900.3" cy="172.6" r="18.2"/>
				<circle id="Oval-Copy_4_" class="st11" cx="-944.8" cy="172.6" r="18.2"/>
				<path id="Rectangle-Copy-2_3_" class="st12" d="M-913.8,136.2l26.4,5.1c2.2,0.4,3.6,2.5,3.2,4.7c0,0,0,0,0,0.1
					c-0.5,2.2-2.6,3.6-4.8,3.2l-26.4-5.1c-2.2-0.4-3.6-2.5-3.2-4.7c0,0,0,0,0-0.1C-918.2,137.2-916,135.8-913.8,136.2z"/>
				<path id="Oval-Copy-2_7_" class="st12" d="M-899.8,175.3c3.6,0,6.6,0,6.6,0S-896.2,175.3-899.8,175.3s-6.6,0-6.6,0
					S-903.4,175.3-899.8,175.3z"/>
				<path id="Path-132_1_" class="st11" d="M-896.1,94.3c-15.7,44.7-56.1,67-121.4,67"/>
				<line id="Path-2_4_" class="st11" x1="-919.5" y1="172.6" x2="-924.6" y2="172.6"/>
				<line id="Path-3_13_" class="st11" x1="-963" y1="172.6" x2="-1017.5" y2="158.4"/>
			</g>
		</g>
		<g id="Group-6_3_" transform="translate(184.281832, 95.440402)">
			<path id="Path-140_1_" class="st2" d="M1041.2,451.9l-1.1-0.4c-26.2-9.9-50.7-23.6-72.8-40.8c-22.1-17.2-46.4-31.5-72.1-42.6
				l-84.5-36.4c-5.3-2.3-11.4,0.2-13.7,5.4c-0.6,1.3-0.8,2.7-0.8,4.1c0,9.7,5.6,18.5,14.3,22.6l78.9,37.6l0,0L875,442.7
				c-3.9,11.2-4.1,23.4-0.4,34.7c3.6,11,11.9,19.8,22.8,23.9l29.6,11.2c9.8,3.7,20.8,0,26.3-8.9l0,0l0,0c8.1,15.5,24,26,47.5,31.3
				C1024.1,540.3,1037.7,512.6,1041.2,451.9z"/>
			<polyline id="Path-150_1_" class="st11" points="829.2,369.9 889.3,401.5 882.7,421.9 889.3,425.8 			"/>
			<line id="Path-151_1_" class="st11" x1="874.7" y1="442.7" x2="889.3" y2="450.7"/>
			<line id="Path-151-Copy_1_" class="st11" x1="874.7" y1="462.9" x2="889.3" y2="470.9"/>
			<line id="Path-152_1_" class="st11" x1="953.2" y1="503.7" x2="919.3" y2="489.5"/>
		</g>
		<path id="Path-148_1_" class="st10" d="M1388.5,595.3l-49.3,62.4c-110.9-12.9-130.7-21.7-59.5-26.6s120.6-44.5,148.1-118.8
			l56.4,118.8L1388.5,595.3z"/>
		<g id="Group_8_" transform="translate(94.169595, 57.292359)">
			<path id="Path-141_1_" class="st15" d="M533.2,257l6.6-21.5c2.4-7.9,10.5-12.7,18.6-11.1L670.9,247l0,0L831,212.2
				c7.4-1.6,14.9,2.1,18.1,9l76,164.6c2.1,4.5,2,9.6-0.2,14l-11.2,22.4l0,0l-83.6-170.8l-145.2,28.7L533.2,257z"/>
			<path id="Path_48_" class="st16" d="M849.1,221.2l76,164.6c2.1,4.5,2,9.6-0.2,14l-11,21.9l-79.3-177.4l2.7-32.2
				C842.3,213,846.8,216.3,849.1,221.2z"/>
			<path id="Path-139_1_" class="st17" d="M527.3,250l59.8,153.9l0,0l172.4,52.7l153.7-31.1c4.4-0.9,7.2-5.1,6.3-9.5
				c-0.1-0.7-0.3-1.3-0.6-1.9L836.6,242c-1.6-3.3-5.1-5.1-8.7-4.5l-153.8,26.2l0,0L536.2,239c-4.4-0.8-8.6,2.1-9.4,6.5
				C526.6,247.1,526.8,248.6,527.3,250z"/>
			<path id="Path_47_" class="st18" d="M828,237.6c3.3-0.6,6.7,1,8.3,3.9l0.3,0.6l82.3,172.1c0.3,0.6,0.5,1.2,0.6,1.9
				c0.8,4.2-1.7,8.3-5.7,9.4l-0.6,0.1l-153.7,31.1l-87.2-193.2l1.9,0.3L828,237.6z"/>
			<line id="Path-144_1_" class="st19" x1="548.5" y1="269.7" x2="660.6" y2="290.2"/>
			<line id="Path-144-Copy_1_" class="st19" x1="556.6" y1="298" x2="668.6" y2="318.5"/>
			<line id="Path-144-Copy-2_1_" class="st19" x1="568.7" y1="326.3" x2="680.8" y2="346.8"/>
			<polyline id="Path-142_1_" class="st5" points="542.5,230.5 672.4,254.9 837.8,221.6 923.4,400.7 			"/>
			<polyline id="Path-143_1_" class="st20" points="560.5,209.5 670.2,248.6 553.8,218 			"/>
		</g>
		<path id="Path-136_1_" class="st21" d="M1484.2,633l-248.1-100.3c-6.2-2.5-13.3,0.5-15.8,6.7c-0.1,0.2-0.1,0.3-0.2,0.5
			l-37.9,106.8c-2.1,6,0.7,12.6,6.5,15.2l285.6,125.5l0,0"/>
		<g id="Group-8_2_" transform="translate(92.925825, 67.677021)">
			<path id="Path-138_3_" class="st2" d="M608.5,499.8l-58.1-60.5c-11.4-11.8-19.8-26.2-24.7-41.9c-4.8-15.5-4.5-32.2,0.7-47.6
				l32.3-95.5c1.5-4.3,6.1-6.6,10.5-5.2c1.3,0.4,2.5,1.2,3.4,2.2c5.9,6.5,8.4,15.4,6.6,24l-15.6,76.9l0,0l25.9-76.9
				c1.6-4.7,6.7-7.2,11.4-5.6c0.9,0.3,1.8,0.8,2.5,1.3c6.1,4.6,9,12.2,7.6,19.6l-14.5,78.1l0,0l29.2-65.1c2.1-4.7,7.7-6.8,12.4-4.7
				c0.3,0.1,0.6,0.3,0.9,0.5c5.3,3.1,7.9,9.4,6.2,15.3l-19.3,69.5l0,0l23.3-37.1c2.3-3.7,7.1-4.9,10.9-2.8c3.9,2.2,5.6,6.9,4,11
				l-16.2,42.6l0,0c8-1.5,17.2,6.3,27.5,23.3L608.5,499.8z"/>
			<line id="Path-5_15_" class="st11" x1="577.5" y1="284.1" x2="559.9" y2="367.5"/>
			<line id="Path-6_15_" class="st11" x1="608.3" y1="305.5" x2="594.7" y2="378.6"/>
			<line id="Path-7_13_" class="st11" x1="638.1" y1="339.7" x2="624.3" y2="389.1"/>
			<line id="Path-8_14_" class="st11" x1="658.1" y1="370.4" x2="645.9" y2="403"/>
		</g>
		<path id="Path-147_1_" class="st5" d="M1189.9,333.7c10.5,46,38.8,72.1,85.1,78.1c46.3,6.1,87.8-19.8,124.4-77.7"/>
		<polyline id="Path-153_1_" class="st5" points="1427.8,512.2 1484.2,633 1241.5,534.5 		"/>
	</g>
</g>
<g>
	<circle class="st12" cx="1441.1" cy="342.3" r="6.5"/>
	<circle class="st12" cx="1397.4" cy="342.3" r="6.5"/>
</g>
</svg>
