<?xml version="1.0" encoding="utf-8"?>
<!-- Generator: Adobe Illustrator 24.3.0, SVG Export Plug-In . SVG Version: 6.00 Build 0)  -->
<svg version="1.1" id="work" xmlns="http://www.w3.org/2000/svg" xmlns:xlink="http://www.w3.org/1999/xlink" x="0px" y="0px"
	 viewBox="0 0 2500 2500" style="enable-background:new 0 0 2500 2500;" xml:space="preserve">
<style type="text/css">
	.st0{fill-rule:evenodd;clip-rule:evenodd;fill:#FEA7A8;}
	.st1{fill:none;stroke:#09072B;stroke-width:2;}
	.st2{fill-rule:evenodd;clip-rule:evenodd;fill:#4B55F3;}
	.st3{fill:none;stroke:#FFFFFF;stroke-width:2;}
	.st4{fill-rule:evenodd;clip-rule:evenodd;fill:#181364;}
	.st5{opacity:0.3;fill:none;stroke:#FFFFFF;stroke-width:2;enable-background:new    ;}
	.st6{fill:none;stroke:#0F0B47;stroke-width:2;}
	.st7{fill-rule:evenodd;clip-rule:evenodd;fill:#FF0021;}
	.st8{opacity:0.1;fill-rule:evenodd;clip-rule:evenodd;enable-background:new    ;}
	.st9{fill-rule:evenodd;clip-rule:evenodd;}
	.st10{fill:none;stroke:#000000;stroke-width:2;}
	.st11{fill-rule:evenodd;clip-rule:evenodd;fill:#4267FF;}
	.st12{fill-rule:evenodd;clip-rule:evenodd;fill:#0F0B47;}
	.st13{fill-rule:evenodd;clip-rule:evenodd;fill:#E19495;}
	.st14{fill-rule:evenodd;clip-rule:evenodd;fill:#202746;}
	.st15{fill-rule:evenodd;clip-rule:evenodd;fill:#2945BB;}
	.st16{fill-rule:evenodd;clip-rule:evenodd;fill:#FFFFFF;}
	.st17{fill-rule:evenodd;clip-rule:evenodd;fill:#0E8B80;}
	.st18{fill-rule:evenodd;clip-rule:evenodd;fill:#774033;}
	.st19{fill:#774033;}
	.st20{fill-rule:evenodd;clip-rule:evenodd;fill:#E19394;}
	.st21{fill-rule:evenodd;clip-rule:evenodd;fill:#FFFCF8;}
	.st22{fill:none;stroke:#FFFCF8;stroke-width:2;}
	.st23{fill:none;stroke:#774033;stroke-width:2;}
	.st24{fill-rule:evenodd;clip-rule:evenodd;fill:#EEA013;}
	.st25{opacity:0.1;fill-rule:evenodd;clip-rule:evenodd;fill:#0F0B47;enable-background:new    ;}
	.st26{fill-rule:evenodd;clip-rule:evenodd;fill:#DB9311;}
</style>
<g id="_x39_---guy-and-girl-are-standing-and-talking">
	<g transform="translate(113.000000, 98.000000)">
		<g id="Man_x5D_">
			<g id="Group-7_8_" transform="translate(40.216446, 147.000000)">
				<g id="Group-5_10_">
					
						<g id="Group-5-Copy_5_" transform="translate(125.309078, 385.951151) rotate(5.000000) translate(-125.309078, -385.951151) translate(75.309078, 350.951151)">
						<g id="Group-4_14_" transform="translate(0.509970, 0.081504)">
							<polygon id="Rectangle_23_" class="st0" points="497.3,1460.4 644.7,1437.2 661.9,1574.8 514.6,1598 							"/>
							<path id="Path-17_9_" class="st1" d="M717.5,1543.1c8.7-64.3,22.8-94.9,42.5-92s4.1,41.4-46.8,115.4
								c39.2-91.3,67.2-122,83.9-92.2c8,14.3-12.5,52.9-75.3,92.5"/>
							<path id="Path-16_9_" class="st2" d="M504.9,1565.5l172.7-71.9c15.6,25.7,36.5,44.1,62.6,55.3
								c39.2,16.7,99.8,28.4,134.1,112.4l-236.5,26.9l-35.6-26.9v26.9l-97.3,12.3V1565.5z"/>
							<g id="Group-9_9_" transform="translate(44.659976, 23.693871)">
								<line id="Path-25_9_" class="st3" x1="622.2" y1="1539.3" x2="677" y2="1502.9"/>
								<line id="Path-25-Copy_9_" class="st3" x1="646.2" y1="1549.5" x2="701" y2="1513.1"/>
								<line id="Path-25-Copy-2_9_" class="st3" x1="670.1" y1="1559.7" x2="724.9" y2="1523.3"/>
							</g>
						</g>
					</g>
					<g id="Group-6_6_" transform="translate(1.297577, 346.673730)">
						<rect id="Rectangle_22_" x="167.4" y="1472.2" class="st0" width="127.5" height="138.9"/>
						<path id="Path-109_3_" class="st2" d="M168.7,1556.4l-6,19.1c-11.9,37.7-18,77-18,116.6v50.9l0,0h177.1l-4.8-76.6
							c-1.4-22.6-4.8-45-10.2-67l-10.4-42.9l0,0L168.7,1556.4L168.7,1556.4z"/>
						<line id="Path-5_8_" class="st3" x1="178.3" y1="1648.8" x2="279" y2="1648.8"/>
						<line id="Path-5-Copy_3_" class="st3" x1="178.3" y1="1621" x2="279" y2="1621"/>
						<line id="Path-5-Copy-2_3_" class="st3" x1="178.3" y1="1589.3" x2="279" y2="1589.3"/>
					</g>
					<path id="Path-130_2_" class="st4" d="M491.5,479.3l36.7,53.1C567,634.7,589.3,716.5,595,777.6
						c13.7,146.2,24.2,512.5,31.7,1099.1h-206l-1.8-597.1l-16.6-418l-28,420.4l-27.6,594.7H141c17.4-631.4,38.3-1002.8,62.6-1114.1
						c11.6-53.1,44.1-129.9,97.3-230.2l-2.2-53.1L491.5,479.3L491.5,479.3z"/>
					<path id="Path-2_9_" class="st5" d="M157.8,1876.7l49.8-979.5c1.6-31.7,7.7-63,18.1-92.9c10.2-29.4,29-55.2,53.8-74l17.1-12.9
						l0,0"/>
					<line id="Path-3_8_" class="st3" x1="402.4" y1="873.2" x2="424.2" y2="752.4"/>
					<line id="Path-4_9_" class="st5" x1="455.8" y1="1876.7" x2="402.4" y2="836.2"/>
				</g>
			</g>
			<g id="Group-3_7_" transform="translate(0.000000, 67.299607)">
				<g id="Group-2_10_" transform="translate(0.216446, 0.700393)">
					<g id="Group-17_3_" transform="translate(134.739749, 64.163534)">
						<g id="Group-12_7_" transform="translate(0.260251, 0.836466)">
							<path id="Path-198_5_" class="st0" d="M595.8,600.7l201,28.3c9.2-11,20.1-20.2,32.9-27.8l34.7-27.8c4.2-3.4,10.4-2.9,14,1.1
								s3.5,10.2-0.3,14.1l-23.3,23.8l10.5,2c25.2,4.7,50.9,6.4,76.5,4.8l29.2-1.8c5.2-0.3,9.8,3.5,10.4,8.8
								c0.6,5.2-3.1,9.8-8.3,10.5l-47.7,5.9c-8.9,1.1-17.8,1.8-26.8,2.1l-4.5,0.1c10.1,4.8,21.2,7.3,32.4,7.1l46.9-0.7
								c5.7-0.1,10.4,4.4,10.7,10.1c0.3,5.7-4.1,10.5-9.7,10.8l-62.7,3.4l-16.9,1.1c12.3,3,24.9,4.4,37.6,4.3l36.8-0.3
								c5.5,0,10.1,4.2,10.4,9.7c0.3,5-3.4,9.4-8.3,10l-0.9,0.1l-47.5,1.6c-2.3,0.1-4.6,0.1-6.9,0.2l-26.7,0.4l10.2,3.6
								c9.1,3.2,18.5,5.9,28,8l8.1,1.8c3.2,0.7,5.3,3.9,4.6,7.2l-0.1,0.3c-1,3.5-4.3,5.8-8,5.5l-8.2-0.8c-9.7-1-19.3-2.6-28.7-5
								l-25.9-6.5l-66.4-9.6l-247.3-1.4c-17,0.2-33.8-4.2-48.5-12.7c-14.5-8.4-25.4-21.8-30.6-37.6L413,463.8l112.9-24.6
								L595.8,600.7z"/>
							<line id="Path-11_4_" class="st6" x1="595.8" y1="600.7" x2="564.8" y2="624.3"/>
							<path id="Path-12_5_" class="st6" d="M854.9,612.4c1,37.4-16.7,56.2-53,56.2"/>
							<path id="Path-13_5_" class="st6" d="M889.6,633.3c3.2,23.9,1.8,47-4.3,69.5"/>
							<path id="Path-14_5_" class="st6" d="M891.2,644.5c16.8,0.2,29.1-0.4,36.7-1.9"/>
							<line id="Path-15_5_" class="st6" x1="891.2" y1="675.3" x2="922.5" y2="675.3"/>
							<line id="Path-18_5_" class="st6" x1="885.3" y1="702.8" x2="922.5" y2="702.8"/>
						</g>
					</g>
					<g id="Group-15" transform="translate(10.473608, 0.000000)">
						<g id="Group-14_1_" transform="translate(0.526392, 0.000000)">
							<path id="Path-196" class="st7" d="M367.1,255l-93.3,8.8c-30.4,2.9-59.2,14.8-82.7,34.4c-23.7,19.8-42.8,44.5-56,72.4
								L57.9,535l0,0l168.2,49l19.7-35.7l25.7,66.1v71.2c55.4,16.6,110.9,24.9,166.6,24.9s105.5-8.3,149.3-24.9l-3.9-158.7
								l115.8-7.4l-77.4-172.7c-11-24.4-27-46.2-47-64c-19.6-17.4-44.8-27.2-71-27.7l-93.9-1.6C395.7,253.1,381.4,253.7,367.1,255z"
								/>
							<path id="Path_74_" class="st8" d="M286.3,471.7c19.6,123.8,45,141.7,127.7,141.7c77,0,135.2-15.2,168.6-45.2l4.8,117.4
								c-38.7,16.6-93.6,24.9-149.3,24.9c-54.2,0-108.2-7.8-162.1-23.5l-4.5-1.3v-71.2l-26.2-63.2L286.3,471.7z"/>
							<polygon id="Path-8_6_" class="st9" points="583.6,526.8 576.8,436.6 629.5,524 							"/>
							<line id="Path-9_6_" class="st10" x1="245.3" y1="551.2" x2="286.3" y2="471.7"/>
							<line id="Path-29_1_" class="st3" x1="66.2" y1="501" x2="226.8" y2="551.2"/>
							<path id="Path-30_1_" class="st3" d="M333,257c7.2,39.8,27.5,59.6,60.9,59.6S444,295.4,444,253"/>
						</g>
					</g>
					<g id="Group-16" transform="translate(0.000000, 73.251565)">
						<g id="Group-13_1_" transform="translate(0.000000, 0.748435)">
							<path id="Path-197" class="st0" d="M365.1,550.3l29.3-14.9c6.7-3.4,13.6-6.4,20.6-9s14.3-4.2,21.8-4.7l48-3.5
								c3.7-0.3,6.8,2.5,7.1,6.1c0.1,0.7,0,1.4-0.2,2.1c-1.4,5.5-5.7,9.8-11.2,11.3l-37.3,9.9l0,0l18.1,1
								c21.4,1.1,42.7-3.6,61.6-13.6l20.3-10.7c5.3-2.8,11.8-2.5,16.9,0.7c3.3,2.1,4.3,6.5,2.1,9.9c-0.4,0.6-0.9,1.2-1.5,1.6
								l-25.4,20.9c-12.6,10.4-26.5,19.1-41.3,25.8l0,0l0,0c-4.5,16.4-8.1,27.4-10.8,32.9c-4.1,8.4-16.3,18.3-40,22.4
								c-15.8,2.7-41.8,0.8-78.1-5.7l-222.6,99.7c-25.1,11.2-54.1,9.9-78-3.6l-2.1-1.2c-21.9-12.3-34.3-36.5-31.6-61.5
								c2.9-27.3,9.3-54.2,19-79.9l44.5-118.1l0,0L225,506.7l-31.1,91.7L365.1,550.3z"/>
							<line id="Path-10_5_" class="st6" x1="147.9" y1="623.5" x2="193.9" y2="598.4"/>
							<line id="Path-19_3_" class="st6" x1="494.1" y1="584.8" x2="479.9" y2="588"/>
							<line id="Path-20_3_" class="st6" x1="487" y1="609.8" x2="473" y2="613.3"/>
							<line id="Path-21_2_" class="st6" x1="443.2" y1="547.6" x2="433.9" y2="551.6"/>
						</g>
					</g>
				</g>
			</g>
			<g id="Group_12_" transform="translate(80.216446, 0.000000)">
				<path id="Path-65_1_" class="st11" d="M261.4,173c-5.7-52,8.9-86.9,43.7-104.7c52.2-26.7,107.9,2.4,115.3,56.5
					c4.9,36.1-18.7,59.7-70.8,70.9L261.4,173z"/>
				<path id="Path-64_1_" class="st0" d="M419.3,130.8l4.1,105.1c0.5,13.2-7.9,25-20.5,28.9l-7.3,2.2c-9.1,2.8-18.9,2.5-27.9-0.9
					l0,0l0,0l1.3,57c0.6,26.9-20.7,49.3-47.6,49.9c-0.4,0-0.8,0-1.2,0c-26.4,0-47.8-21.4-47.8-47.8c0-0.7,0-1.4,0-2.1l4.8-108.2l0,0
					c-16.5-15.4-23.6-29.1-21.4-41c3.3-17.9,25.3-14.5,35.2,0l50.1-51.9c12.4-12.8,29.4-20,47.2-20h0.9
					C405.5,102,418.7,114.7,419.3,130.8z"/>
				<ellipse id="Oval_24_" class="st12" cx="370.3" cy="164.2" rx="4.4" ry="4.4"/>
				<path id="Rectangle-Copy_5_" class="st12" d="M375.1,143.4l-26.7,5.2c-2.2,0.4-3.7,2.6-3.2,4.8c0,0,0,0,0,0.1
					c0.5,2.3,2.7,3.7,4.9,3.3l26.7-5.2c2.2-0.4,3.7-2.6,3.2-4.8c0,0,0,0,0-0.1C379.6,144.4,377.4,143,375.1,143.4z"/>
				<ellipse id="Oval-Copy_7_" class="st12" cx="405.8" cy="164.2" rx="4.4" ry="4.4"/>
				<path id="Rectangle-Copy-2_8_" class="st12" d="M399,143.4l26.7,5.2c2.2,0.4,3.7,2.6,3.2,4.8c0,0,0,0,0,0.1
					c-0.5,2.3-2.7,3.7-4.9,3.3l-26.7-5.2c-2.2-0.4-3.7-2.6-3.2-4.8c0,0,0,0,0-0.1C394.5,144.4,396.7,143,399,143.4z"/>
				<path id="Path_73_" class="st13" d="M304.3,219.5l83.8,6.8c7.5,15.1,12.6,27.9,15.4,38.3l-0.6,0.2l-7.3,2.2
					c-8.6,2.6-17.8,2.5-26.3-0.3l-1.6-0.6l0.7,30.1c-37-10.8-58.3-35.7-63.9-74.7L304.3,219.5z"/>
				<path id="Path_72_" class="st14" d="M304.5,160.1l5.4,14.6c7.3,19.7,26.3,32.5,47.3,31.9l65-2l1.2,31.3
					c0.5,13.2-7.9,29.5-20.5,33.3l-1.1,0.3c-12.6,3.9-23.7,2.3-38.9-1.7l-2.3-0.4v0.3l-21.5-6.2c-11.1-3.2-20.9-9.9-27.9-19.1
					c-7.1-9.3-11.8-20.1-13.8-31.6l-6.3-36.9L304.5,160.1z"/>
				<path id="Path-66_1_" class="st15" d="M291.2,173.9L288,170l44.9-56.2c18.2-22.8,46.5-35.3,75.6-33.3l34.3,2.3
					c4.5,0.3,7.9,4.2,7.6,8.7c-0.1,1.1-0.4,2.1-0.8,3.1c-3.6,7.3-8.5,13.8-14.4,19.3l-15.5,14.4l0,0c-28.1-0.9-49.9-0.3-65.1,1.8
					C339.2,132.4,318.1,147,291.2,173.9z"/>
				<path id="Path-67_1_" class="st6" d="M284.4,179.9c-6.3-7.9-12.1-9.9-17.4-6s-3.5,11.9,5.5,24.1"/>
				<path id="Path-68_1_" class="st16" d="M375,225.6h28.4c-0.9,8.9-5.6,13.3-14.2,13.3C380.6,239,375.9,234.5,375,225.6z"/>
				<path id="Path-2_8_" class="st6" d="M390.7,170.1l3.1,10.7c1,3.5,3,6.7,5.7,9.2l0.9,0.8c2,1.8,2.7,4.7,1.9,7.2
					c-0.8,2.5-3.1,4.2-5.7,4.2h-8.2l0,0"/>
			</g>
		</g>
		<g id="Group-3_6_" transform="translate(285.000000, 16.000000)">
			<g id="Group-7_7_" transform="translate(0.853659, 0.000000)">
				<g id="Group_11_" transform="translate(0.881481, 174.191914)">
					
						<g id="Group-4-Copy_4_" transform="translate(70.065546, 355.142240) scale(-1, 1) rotate(25.000000) translate(-70.065546, -355.142240) translate(11.065546, 318.142240)">
						<polygon id="Path-60_7_" class="st0" points="-433.4,1876.5 -390.6,1980.6 -265.1,1916.2 -310.6,1805.2 						"/>
						<path id="Path-58_7_" class="st12" d="M-406,1936.9l134.1-59.2c3.6-1.6,7.7-0.3,9.7,3.1l11.5,18.9
							c9.1,14.9,26.2,22.9,43.5,20.2l181-28.3c14.6-2.3,29,5.2,35.5,18.5c5.7,11.6,0.9,25.6-10.8,31.3c-0.4,0.2-0.9,0.4-1.3,0.6
							l-303.8,126.1c-25.6,10.6-55-1.5-65.6-27.1c-0.1-0.2-0.1-0.4-0.2-0.5l-37.5-93.5C-411.6,1943-409.8,1938.6-406,1936.9z"/>
						<path id="Path-59_6_" class="st3" d="M-357.1,1914.5l15.1,32.1c7.7,16.5,27.1,23.8,43.8,16.7c16.6-7.1,24.4-26.2,17.6-42.9
							l-13.7-33.2l0,0"/>
					</g>
					<path id="Path-97_1_" class="st12" d="M1431.8,603c-198.8,489-328.5,907.9-389.2,1256.5h320.5c15.5-307,74.5-545.2,177.1-714.5
						C1642.9,975.7,1606.8,795,1431.8,603z"/>
					<path id="Path_71_" class="st9" d="M1431.8,603c174.9,192,211.1,372.7,108.4,542c-65,107.2-112.5,241.9-142.5,404.3L1431.8,603
						z"/>
					
						<g id="Group-4_13_" transform="translate(215.987258, 354.298005) scale(-1, 1) rotate(25.000000) translate(-215.987258, -354.298005) translate(157.987258, 316.798005)">
						<polygon id="Path-60_6_" class="st0" points="-807.8,2052 -774.5,2160.6 -649,2096.2 -685,1980.7 						"/>
						<path id="Path-58_6_" class="st12" d="M-789.9,2116.9l134.1-59.2c3.6-1.6,7.7-0.3,9.7,3.1l11.5,18.9
							c9.1,14.9,26.2,22.9,43.5,20.2l181-28.3c14.6-2.3,29,5.2,35.5,18.5c5.7,11.6,0.9,25.6-10.8,31.3c-0.4,0.2-0.9,0.4-1.3,0.6
							l-303.8,126.1c-25.6,10.6-55-1.5-65.6-27.1c-0.1-0.2-0.1-0.4-0.2-0.5l-37.5-93.5C-795.5,2123-793.7,2118.6-789.9,2116.9z"/>
						<path id="Path-59_5_" class="st3" d="M-741,2094.5l15.1,32.1c7.7,16.5,27.1,23.8,43.8,16.7c16.6-7.1,24.4-26.2,17.6-42.9
							l-13.7-33.2l0,0"/>
					</g>
					<path id="Path-96_1_" class="st12" d="M1648,1859.5h308.6L1754.1,778.7c-10.4-55.4-32.8-107.9-65.6-153.7l-15.7-21.9l0,0h-241
						L1648,1859.5z"/>
					<line id="Path-7_6_" class="st5" x1="1550.4" y1="650" x2="1761.5" y2="1856.1"/>
					<line id="Path-7-Copy_2_" class="st5" x1="1602.8" y1="650" x2="1813.9" y2="1856.1"/>
				</g>
				
					<g id="Group-17_2_" transform="translate(89.411164, 122.472346) scale(-1, 1) rotate(-44.000000) translate(-89.411164, -122.472346) translate(17.411164, 87.472346)">
					<g id="Group-12_6_" transform="translate(0.260251, 0.836466)">
						<path id="Path-198_4_" class="st0" d="M-1156.2-411.2l207.6,42.7c9.2-11,20.1-20.2,32.9-27.8l34.7-27.8
							c4.2-3.4,10.4-2.9,14,1.1s3.5,10.2-0.3,14.1l-23.3,23.8l10.5,2c25.2,4.7,50.9,6.4,76.5,4.8l29.2-1.8c5.2-0.3,9.8,3.5,10.4,8.8
							c0.6,5.2-3.1,9.8-8.3,10.5L-820-355c-8.9,1.1-17.8,1.8-26.8,2.1l-4.5,0.1c10.1,4.8,21.2,7.3,32.4,7.1l46.9-0.7
							c5.7-0.1,10.4,4.4,10.7,10.1s-4.1,10.5-9.7,10.8l-62.7,3.4l-16.9,1.1c12.3,3,24.9,4.4,37.6,4.3l36.8-0.3
							c5.5,0,10.1,4.2,10.4,9.7c0.3,5-3.4,9.4-8.3,10l-0.9,0.1l-47.5,1.6c-2.3,0.1-4.6,0.1-6.9,0.2l-26.7,0.4l10.2,3.6
							c9.1,3.2,18.5,5.9,28,8l8.1,1.8c3.2,0.7,5.3,3.9,4.6,7.2l-0.1,0.3c-1,3.5-4.3,5.8-8,5.5l-8.2-0.8c-9.7-1-19.3-2.6-28.7-5
							l-25.9-6.5l-66.4-9.6l-263.7-9c-17,0.2-61.4-10.8-81.2-23.1c-19.8-12.2-26.8-46.3-24.3-66.3c1.6-13.3,16.9-61.2,45.8-143.7
							l146.6,16.8L-1156.2-411.2z"/>
						<path id="Path-12_4_" class="st6" d="M-890.6-385.1c1,37.4-16.7,56.2-53,56.2"/>
						<path id="Path-13_4_" class="st6" d="M-855.9-364.2c3.2,23.9,1.8,47-4.3,69.5"/>
						<path id="Path-14_4_" class="st6" d="M-854.2-353c16.8,0.2,29.1-0.4,36.7-1.9"/>
						<line id="Path-15_4_" class="st6" x1="-854.2" y1="-322.2" x2="-822.9" y2="-322.2"/>
						<line id="Path-18_4_" class="st6" x1="-860.2" y1="-294.7" x2="-822.9" y2="-294.7"/>
						<line id="Path-28_5_" class="st6" x1="-1156.2" y1="-411.2" x2="-1204.9" y2="-396.3"/>
					</g>
				</g>
				<g id="Group-5_9_" transform="translate(110.523808, 0.000000)">
					<g id="Group-4_12_" transform="translate(0.739638, 0.282120)">
						<path id="Path-93_1_" class="st17" d="M1599.6,637.6h63.9l-75.2-193.4c-7.8-20-23.9-35.5-44.2-42.6
							c-21.1-7.3-43.3-11.1-65.7-11.1h-78.6l0,0l-88.1,8.8c-15.8,1.6-30.7,8.3-42.3,19.1c-11.9,11-21.5,24.2-28.4,38.8l-78,165.5
							l0,0l116.6,17c3.8,34.8,15.2,59.9,34.2,75.2l-13.4,89.1c18.9,14.1,61.9,21.1,129.1,21.1s120.2-7,159.1-21.1L1599.6,637.6z"/>
						
							<g id="Group-2_9_" transform="translate(77.382895, 46.217880) scale(-1, 1) translate(-77.382895, -46.217880) translate(40.882895, 0.717880)">
							<g>
								<path id="Path-99" class="st18" d="M-1217,273.6c17.3-44.9,10.4-78.6-20.6-101.2c-46.5-33.9-115.3-8.1-140.5,31.4
									s-32,124.7,40.3,115.8C-1289.6,313.7-1249.4,298.3-1217,273.6z"/>
								<circle class="st19" cx="-1416.2" cy="175.8" r="73.2"/>
								<path id="Path-98" class="st0" d="M-1213.3,234.8l1.4,82c0.2,11.7-6.7,22.4-17.4,27.1c-11.4,5-24.3,5.7-36.2,1.9l-6-1.9l0,0
									l6.6,63.1c2.6,25.1-15.6,47.5-40.6,50.1c-1.6,0.2-3.2,0.2-4.8,0.2c-25.3,0-45.9-20.5-45.9-45.9c0-1.5,0.1-3,0.2-4.6
									l6.2-62.1c2.1-21.4-0.9-43-9-63l0,0l0,0c-16.4-11.3-22.2-22-17.4-32.1c7.3-15.1,29.6-1.4,29.6,3.4
									c43.6,7.4,75.5-10.2,95.6-52.8c19.3-1.4,36,13.1,37.4,32.4C-1213.4,233.5-1213.3,234.1-1213.3,234.8z"/>
								<path id="Path_70_" class="st20" d="M-1314.7,315c14.4,13.5,28.8,23.1,43.2,28.9l6.4,60.8L-1314.7,315z"/>
								<path id="Oval_22_" class="st21" d="M-1359.9,284.7c5.4,0,9.7,0,9.7,0S-1354.5,284.7-1359.9,284.7s-9.7,0-9.7,0
									S-1365.3,284.7-1359.9,284.7z"/>
								<path id="Path-100" class="st6" d="M-1369.7,262.1c-1.4-6.8,0.4-10.6,5.4-11.3s8.7,3.1,11.1,11.3"/>
								<path id="Path-101" class="st6" d="M-1240.8,258.3c0.3,14.3,3.3,23.2,9.3,26.7c8.9,5.4,0,21.2-13.9,14.8"/>
								<path id="Oval_21_" class="st12" d="M-1263.3,265.6c3.2,0,5.8,0,5.8,0S-1260.1,265.6-1263.3,265.6s-5.8,0-5.8,0
									S-1266.5,265.6-1263.3,265.6z"/>
								<path id="Rectangle-Copy_4_" class="st12" d="M-1257.7,241.9l-23.3,4.5c-1.9,0.4-3.1,2.2-2.8,4.1c0,0,0,0,0,0.1
									c0.4,1.9,2.3,3.2,4.3,2.8l23.3-4.5c1.9-0.4,3.1-2.2,2.8-4.1c0,0,0,0,0-0.1C-1253.8,242.8-1255.7,241.5-1257.7,241.9z"/>
								<path id="Rectangle-Copy-2_7_" class="st12" d="M-1237,241.9l23.3,4.5c1.9,0.4,3.1,2.2,2.8,4.1c0,0,0,0,0,0.1
									c-0.4,1.9-2.3,3.2-4.3,2.8l-23.3-4.5c-1.9-0.4-3.1-2.2-2.8-4.1c0,0,0,0,0-0.1C-1240.8,242.8-1239,241.5-1237,241.9z"/>
								<path id="Oval-Copy-2_3_" class="st12" d="M-1224.6,265.6c3.2,0,5.8,0,5.8,0S-1221.4,265.6-1224.6,265.6s-5.8,0-5.8,0
									S-1227.8,265.6-1224.6,265.6z"/>
								<path id="Path-102" class="st6" d="M-1265.1,301.4c4,12,13.5,16.5,28.4,13.7"/>
								<path id="Path-3_7_" class="st22" d="M-1390.8,238.5c11-21.9,24.5-41,40.6-57.3"/>
								<path id="Path-6_6_" class="st23" d="M-1489.3,206.4c24.3,42.8,57.1,53.5,98.5,32.1"/>
								<path id="Path-27_2_" class="st23" d="M-1250.9,199.7c-5.3,39.1-36.7,57.4-94.1,54.9"/>
							</g>
						</g>
						<path id="Path_69_" class="st24" d="M1478.5,390.6c7.9,0,8.5-0.2,16.3,0.7c-28.4,63.4-32.1,153.2-25.8,267.8h-42.6l0.4-8.1
							c6.1-130.7,20.8-217.5,44.3-260.5L1478.5,390.6z"/>
						<path id="Path_68_" class="st9" d="M1307.7,540.9c-6.5,31.2-16.2,63.2-27.9,98.8l-19.9-2.9L1307.7,540.9z"/>
						<path id="Path_67_" class="st25" d="M1503.6,558.8l29.8,79.8l55.4,45v120.5c-38.3,13.8-90.2,20.9-155.7,21.1h-3.4
							c-66.2,0-97.6-6.8-127.7-20.5l-1.3-0.6l13.2-87.4c34.7,1.7,108.5,19.7,161-0.2C1513.3,701.9,1521.4,627,1503.6,558.8z"/>
						<path id="Path-Copy_2_" class="st9" d="M1503.6,558.8l29.8,79.8l55.4,45v120.5c-38.3,13.8-166.5-67.7-114-87.5
							C1513.3,701.9,1521.4,627,1503.6,558.8z"/>
						<path id="Path-6_5_" class="st24" d="M1419.1,659.1l-37.7,294.7c-8.3,64.7,30.3,126.3,92.1,147.1
							c66.4,22.4,139.7,10.2,195.3-32.4l35-26.8c54-41.4,71.2-115.1,41.2-176.1l0,0l0,0l-150.4-225.8l-29.5,91.5l-71.7-9.4
							L1419.1,659.1z"/>
						<path id="Path_66_" class="st26" d="M1592.8,645.1c2.1,0.5,4.3,1,6.4,1.6L1745,865.6l0.9,1.8c0.5,1,1,2.1,1.4,3.1
							c-28.6,69.2-112,100.3-199.4,43.7c-64.9-42-110.4-106.7-136.6-193.9l7.8-61.2l74.3,62.7l71.7,9.4L1592.8,645.1z"/>
						<path id="Path-8_5_" class="st3" d="M1494.7,391.3c-29.7,84.9-37.1,179.2-22,283"/>
						<path id="Path-9_5_" class="st3" d="M1413.3,692c-7.9,67.9-13.9,115.2-17.9,142.1c-16.9,114.5-20.1,180.9,6.1,209.9"/>
						<line id="Path-31_1_" class="st3" x1="1170.9" y1="597.1" x2="1265.3" y2="614.9"/>
						<line id="Path-32_1_" class="st3" x1="1552.9" y1="614.9" x2="1670" y2="614.9"/>
						<path id="Path-33_1_" class="st3" d="M1371.4,390.6c-8.8,42.6,3.6,68,37.2,76.1"/>
					</g>
					<g id="Group-2_8_" transform="translate(43.398232, 107.347332)">
						<path id="Path-95_1_" class="st0" d="M1292.3,516.9l-3.9-7.1c-1.8-3.4-1.4-7.5,1.2-10.4c1.8-2,4.8-2.1,6.8-0.3
							c0.3,0.3,0.6,0.7,0.9,1l2.3,3.7c3.8,6.1,8.3,11.6,13.6,16.5l22.5,21l0,0l-10.3-13.2c-10.3-13.3-19-27.8-25.8-43.1l-7.9-17.9
							c-1.4-3.1-0.4-6.7,2.3-8.8c2.3-1.8,5.6-1.3,7.4,1c0.1,0.1,0.2,0.3,0.3,0.4l8.4,13.5c7.6,12.2,16.1,23.8,25.5,34.7l6.7,7.8l0,0
							l-11.3-24.1c-1.8-3.8-3.5-7.6-5.2-11.5l-19.8-45.9c-1.6-3.7-0.3-8,3-10.3c2.9-1.9,6.8-1.2,8.7,1.7c0.1,0.2,0.2,0.4,0.3,0.5
							l13.8,25.8c6.9,12.9,15.2,25.1,24.8,36.2l0,0l0,0l-6.3-14.9c-0.8-2-1.7-4-2.5-6l-16.3-40.7c-1.5-3.8-0.3-8.1,2.9-10.6
							c2.6-2,6.3-1.5,8.2,1.1c0.2,0.2,0.4,0.5,0.5,0.8l24.7,45.3c0.7,1.2,1.4,2.5,2.1,3.7l19.4,34.6l0,0l1.4-6.8
							c1.2-5.7,1.2-11.5,0.2-17.2c-1-5.6-0.3-11.4,2.2-16.5l2.1-4.5c1.1-2.2,3.7-3.2,6-2.1c1.3,0.6,2.2,1.8,2.5,3.2l2.8,14.8
							c1.2,6.2,2.2,12.4,3.1,18.7l6.1,43.6l0,0l90.9,60.8l-18.5-65.5h120.8l36.8,153.3c5.1,21.1,1.3,43.3-10.3,61.5
							c-10.8,17-31.4,24.9-50.8,19.4l-2.9-0.8c-23.3-6.6-44.7-18.7-62.3-35.4l-139.5-132.2c-7.3-6.9-14.9-13.5-22.7-19.8l-46.5-37.1
							C1303.2,532.8,1296.9,525.4,1292.3,516.9z"/>
						<path id="Path-94_1_" class="st6" d="M1506.7,595.2c46.6,23.5,77.3,49.3,92.2,77.3"/>
						<line id="Path-22_2_" class="st6" x1="1383.7" y1="490.1" x2="1394" y2="507.8"/>
						<line id="Path-23_2_" class="st6" x1="1345.8" y1="462.4" x2="1357.3" y2="490.1"/>
						<line id="Path-24_2_" class="st6" x1="1327.7" y1="484.6" x2="1342.7" y2="515.6"/>
						<line id="Path-26_2_" class="st6" x1="1318.8" y1="519.6" x2="1336.6" y2="542.2"/>
					</g>
				</g>
			</g>
		</g>
	</g>
</g>
<g>
	<circle class="st12" cx="1885.2" cy="377.9" r="6.5"/>
	<circle class="st12" cx="1846.1" cy="377.9" r="6.5"/>
</g>
</svg>
