<?xml version="1.0" encoding="utf-8"?>
<!-- Generator: Adobe Illustrator 24.1.2, SVG Export Plug-In . SVG Version: 6.00 Build 0)  -->
<svg version="1.1" id="work" xmlns="http://www.w3.org/2000/svg" xmlns:xlink="http://www.w3.org/1999/xlink" x="0px" y="0px"
	 viewBox="0 0 2500 2500" style="enable-background:new 0 0 2500 2500;" xml:space="preserve">
<style type="text/css">
	.st0{fill-rule:evenodd;clip-rule:evenodd;fill:#FEA7A8;}
	.st1{fill:none;stroke:#09072B;stroke-width:2;}
	.st2{fill-rule:evenodd;clip-rule:evenodd;fill:#261A5E;}
	.st3{fill:none;stroke:#FFFFFF;stroke-width:2;}
	.st4{fill-rule:evenodd;clip-rule:evenodd;fill:#0F0B47;}
	.st5{opacity:0.3;fill:none;stroke:#FFFFFF;stroke-width:2;enable-background:new    ;}
	.st6{fill-rule:evenodd;clip-rule:evenodd;fill:#3D9BEF;}
	.st7{opacity:0.1;fill-rule:evenodd;clip-rule:evenodd;fill:#0F0B47;enable-background:new    ;}
	.st8{fill-rule:evenodd;clip-rule:evenodd;fill:#E19394;}
	.st9{fill-rule:evenodd;clip-rule:evenodd;fill:#372A7F;}
	.st10{fill-rule:evenodd;clip-rule:evenodd;fill:#54479C;}
	.st11{fill:none;stroke:#0F0B47;stroke-width:2;}
	.st12{fill:none;stroke:#372A7F;stroke-width:2;}
	.st13{fill-rule:evenodd;clip-rule:evenodd;fill:#FFFFFF;}
	.st14{fill:#FFD884;}
	.st15{fill:#FFBF41;}
	.st16{fill:#58B8C0;}
	.st17{fill:#EBD9EC;}
	.st18{fill-rule:evenodd;clip-rule:evenodd;fill:#B3DBC9;}
	.st19{fill-rule:evenodd;clip-rule:evenodd;fill:#BCE6D3;}
	.st20{fill-rule:evenodd;clip-rule:evenodd;fill:#F69800;}
	.st21{opacity:0.5;fill:none;stroke:#FFFFFF;stroke-width:2;enable-background:new    ;}
	.st22{opacity:0.2;fill-rule:evenodd;clip-rule:evenodd;fill:#261A5E;enable-background:new    ;}
	.st23{fill-rule:evenodd;clip-rule:evenodd;fill:#003E8C;}
	.st24{fill-rule:evenodd;clip-rule:evenodd;fill:#08234A;}
	.st25{fill-rule:evenodd;clip-rule:evenodd;fill:#FFFCF8;}
	.st26{fill-rule:evenodd;clip-rule:evenodd;fill:#DBD8FF;}
	.st27{fill-rule:evenodd;clip-rule:evenodd;fill:#C2C0E7;}
	.st28{fill-rule:evenodd;clip-rule:evenodd;fill:#3F38A2;}
	.st29{fill-rule:evenodd;clip-rule:evenodd;fill:#363082;}
	.st30{fill:none;stroke:#FFFFFF;stroke-width:2;stroke-linecap:round;}
	.st31{fill:none;stroke:#DBD8FF;stroke-width:2;stroke-linecap:round;}
	.st32{fill-rule:evenodd;clip-rule:evenodd;fill:#003E8C;stroke:#0F0B47;stroke-width:2;}
	.st33{fill-rule:evenodd;clip-rule:evenodd;fill:#4B55F3;}
	.st34{fill-rule:evenodd;clip-rule:evenodd;fill:#181364;}
	.st35{fill-rule:evenodd;clip-rule:evenodd;fill:#06041A;}
	.st36{opacity:0.6;fill:none;stroke:#FFFFFF;stroke-width:2;enable-background:new    ;}
	.st37{fill-rule:evenodd;clip-rule:evenodd;fill:#FFD422;}
	.st38{fill-rule:evenodd;clip-rule:evenodd;fill:#FFFFFF;stroke:#0F0B47;stroke-width:2;}
	.st39{fill-rule:evenodd;clip-rule:evenodd;fill:#FF0021;}
	.st40{fill:none;stroke:#0F0B47;stroke-width:2;stroke-linecap:round;}
	.st41{fill-rule:evenodd;clip-rule:evenodd;fill:#FEA7A8;stroke:#0F0B47;stroke-width:2;}
	.st42{fill-rule:evenodd;clip-rule:evenodd;fill:#EA0422;}
	.st43{fill-rule:evenodd;clip-rule:evenodd;fill:#0C0936;}
	.st44{fill-rule:evenodd;clip-rule:evenodd;fill:#F3A3A4;}
	.st45{fill-rule:evenodd;clip-rule:evenodd;fill:#0F0B47;stroke:#FFFFFF;stroke-width:2;}
	.st46{fill-rule:evenodd;clip-rule:evenodd;fill:#F7A4A5;}
	.st47{opacity:0.4;fill:none;stroke:#FFFFFF;stroke-width:2;enable-background:new    ;}
	.st48{fill-rule:evenodd;clip-rule:evenodd;fill:#0E8B80;}
	.st49{fill-rule:evenodd;clip-rule:evenodd;fill:#BF4A24;}
	.st50{fill:none;stroke:#FFFCF8;stroke-width:2;}
	.st51{fill:none;stroke:#BF4A24;stroke-width:2;}
	.st52{fill-rule:evenodd;clip-rule:evenodd;fill:#FF77A5;}
	.st53{fill-rule:evenodd;clip-rule:evenodd;fill:#FFC84B;}
	.st54{fill-rule:evenodd;clip-rule:evenodd;fill:#ECB947;}
	.st55{fill-rule:evenodd;clip-rule:evenodd;fill:#0C8076;}
	.st56{fill-rule:evenodd;clip-rule:evenodd;fill:#F9F9F9;}
	.st57{fill:none;stroke:#F9F9F9;stroke-width:2;}
	.st58{fill-rule:evenodd;clip-rule:evenodd;fill:#FF622D;}
	.st59{fill-rule:evenodd;clip-rule:evenodd;fill:#DB4F20;}
	.st60{fill-rule:evenodd;clip-rule:evenodd;fill:#006D85;}
	.st61{fill-rule:evenodd;clip-rule:evenodd;fill:#0094B4;}
	.st62{fill-rule:evenodd;clip-rule:evenodd;fill:#733014;}
	.st63{fill:none;stroke:#733014;stroke-width:2;}
	.st64{opacity:0.1;fill-rule:evenodd;clip-rule:evenodd;enable-background:new    ;}
	.st65{fill-rule:evenodd;clip-rule:evenodd;}
	.st66{fill:none;stroke:#000000;stroke-width:2;}
	.st67{fill-rule:evenodd;clip-rule:evenodd;fill:#4267FF;}
	.st68{fill-rule:evenodd;clip-rule:evenodd;fill:#E19495;}
	.st69{fill-rule:evenodd;clip-rule:evenodd;fill:#202746;}
	.st70{fill-rule:evenodd;clip-rule:evenodd;fill:#2945BB;}
	.st71{fill-rule:evenodd;clip-rule:evenodd;fill:#774033;}
	.st72{fill:none;stroke:#774033;stroke-width:2;}
	.st73{fill-rule:evenodd;clip-rule:evenodd;fill:#EEA013;}
	.st74{fill-rule:evenodd;clip-rule:evenodd;fill:#DB9311;}
	.st75{fill-rule:evenodd;clip-rule:evenodd;fill:#3E60EB;}
	.st76{opacity:0.1;fill-rule:evenodd;clip-rule:evenodd;fill:#FFFFFF;enable-background:new    ;}
	.st77{fill:none;stroke:#261A5E;stroke-width:2;}
	.st78{fill-rule:evenodd;clip-rule:evenodd;fill:#FF5D5C;}
	.st79{fill-rule:evenodd;clip-rule:evenodd;fill:#D95150;}
	.st80{fill-rule:evenodd;clip-rule:evenodd;fill:#03CEFA;}
	.st81{fill-rule:evenodd;clip-rule:evenodd;fill:#03BCE4;}
	.st82{fill-rule:evenodd;clip-rule:evenodd;fill:#402E92;}
	.st83{fill-rule:evenodd;clip-rule:evenodd;fill:#DC678F;}
	.st84{fill-rule:evenodd;clip-rule:evenodd;fill:#98C3AF;}
	.st85{fill-rule:evenodd;clip-rule:evenodd;fill:#19D9EB;}
	.st86{fill-rule:evenodd;clip-rule:evenodd;fill:#13C3D3;}
	.st87{fill-rule:evenodd;clip-rule:evenodd;fill:#10A6B4;}
	.st88{fill-rule:evenodd;clip-rule:evenodd;fill:#FEDD00;}
	.st89{fill-rule:evenodd;clip-rule:evenodd;fill:#358BD7;}
	.st90{fill-rule:evenodd;clip-rule:evenodd;fill:#017F5D;}
	.st91{opacity:0.2;fill:none;stroke:#FFFFFF;stroke-width:2;enable-background:new    ;}
	.st92{fill-rule:evenodd;clip-rule:evenodd;fill:#00976F;}
	.st93{fill-rule:evenodd;clip-rule:evenodd;fill:#FF2200;}
	.st94{fill-rule:evenodd;clip-rule:evenodd;fill:#EE2304;}
	.st95{opacity:0.1;fill-rule:evenodd;clip-rule:evenodd;fill:#002C46;enable-background:new    ;}
	.st96{fill-rule:evenodd;clip-rule:evenodd;fill:#FF81C3;}
	.st97{opacity:0.3;fill-rule:evenodd;clip-rule:evenodd;fill:#BD461E;enable-background:new    ;}
	.st98{fill-rule:evenodd;clip-rule:evenodd;fill:#2F170B;}
	.st99{fill-rule:evenodd;clip-rule:evenodd;fill:#FFC09F;}
	.st100{opacity:0.2;fill-rule:evenodd;clip-rule:evenodd;fill:#6A3D25;enable-background:new    ;}
	.st101{fill-rule:evenodd;clip-rule:evenodd;fill:#6A3D25;}
	.st102{fill-rule:evenodd;clip-rule:evenodd;fill:#284BF2;}
	.st103{fill-rule:evenodd;clip-rule:evenodd;fill:#EB5D2D;}
	.st104{fill-rule:evenodd;clip-rule:evenodd;fill:#FFB34D;}
	.st105{opacity:0.2;fill-rule:evenodd;clip-rule:evenodd;fill:#2F170B;enable-background:new    ;}
	.st106{opacity:0.3;fill-rule:evenodd;clip-rule:evenodd;fill:#2F170B;enable-background:new    ;}
	.st107{fill:none;stroke:#2F170B;stroke-width:2;}
	.st108{fill-rule:evenodd;clip-rule:evenodd;fill:#FF5A59;}
	.st109{fill-rule:evenodd;clip-rule:evenodd;fill:#E94E4D;}
</style>
<g id="_x33_---girl-walking-with-a-dog">
	<g transform="translate(139.000000, 95.000000)">
		<g id="dOG" transform="translate(0.000000, 252.000000)">
			<path id="Path-87" class="st98" d="M663.4,1648.5l31.6,165.1c2.8,14.5,7.8,28.5,15,41.4l70.1,126.4c2.7,4.9,7.9,8,13.5,8h16.7
				c8.5,0,15.5-6.9,15.5-15.5c0-2.1-0.4-4.2-1.3-6.1l-37.8-87.5c-11.9-27.5-14.6-58.2-7.7-87.3c9.4-39.7,14.1-77.6,14.1-113.8
				C793.1,1630.1,749.9,1619.9,663.4,1648.5z"/>
			<path id="Path-88" class="st98" d="M1099.5,1632.7c-36.9,82.2-55.3,141.7-55.3,178.3c0,33.7-8.8,86.8-26.3,159.2
				c-2,8.3,3.1,16.7,11.4,18.7c1.2,0.3,2.4,0.4,3.6,0.4h16.6c7.7,0,14.2-5.6,15.3-13.2c14.5-97.8,50.6-178.8,108.5-242.9
				C1233.7,1666.2,1209.1,1632.7,1099.5,1632.7z"/>
			<path id="Path-83" class="st104" d="M702,1385.6c-35.2-25-62.5-53.2-81.8-84.5c-28.9-46.9-109.5-41.2-160,5.6
				c-50.5,46.8-128.6,64.3-128.6,78.9s12.4,75.5,100.9,64.7s130.7,39.1,148.5,71c13.1,23.5,3.6,73.2,30,128.5
				c6.1,12.8-30.6,118.8-110.2,318.2c-3.2,7.9,0.7,16.9,8.6,20.1c1.8,0.7,3.8,1.1,5.7,1.1h40.7c5.9,0,11.4-3.4,13.9-8.8
				c29.2-60.7,51.4-105,66.7-132.8c29.7-54,65.6-74.4,92-139.9c117.8,30.9,237.7,15,359.7-47.7c13.1,58.4,59.4,107.7,139.1,147.8
				c72,36.3,113.8,89.1,125.2,158.6c2.1,13.1,13.4,22.7,26.7,22.7h12.5c14.9,0,27-12.1,27-27c0-1.3-0.1-2.7-0.3-4
				c-12.7-85.6-33.9-135.7-63.4-150.3c-49.3-24.3-39.5-234.4-172.6-322.9c66.3-39.5,99.4-99,99.4-178.3
				c-25.8,98.6-76.7,148-152.6,148S910.8,1431.7,702,1385.6z"/>
			<path id="Path" class="st105" d="M1226.8,1524.3c68.1,78.1,81.8,194.4,105,251.6l-0.3,0l-1.2,0c-57.6,0-20.9-60.5-70.7-61.7
				l-1.5,0c-52.1,0,7.7-90-26.1-124.4c-20.5-20.8-22.4-42.6-5.5-65.3L1226.8,1524.3z"/>
			<path id="Path_1_" class="st105" d="M772.1,1402.1l0.3-1.3l19.6,4.1c98.3,20.4,178.6,34.5,240.9,42.4c-2.4,18.6-15,28-37.7,28.4
				l-1.3,0c-57.5,0-34,45.7-90.5,59.7c-55.9,13.8-20-60.6-87.1-79.7l-2.1-0.6C780,1446.3,766.1,1428.7,772.1,1402.1L772.1,1402.1z"
				/>
			<path id="Path_2_" class="st106" d="M693.9,1577c56.6,15.8,89.3,62.3,98,139.7l0.4,3.3l-4.4-0.5l0,0l-3.7-0.5l0,0l-2.1-0.3
				l-5.2-0.8l0,0l-5.2-0.8l-4-0.7l-2.8-0.5l0,0l-2.8-0.5l-4.5-0.9l-2.8-0.5l0,0l-2.8-0.6l-5-1.1l-4.3-1l-4.1-1l-2.5-0.6l0,0l-3-0.7
				l-4.7-1.2l0.4-2.2C739.6,1648.6,728,1605.7,693.9,1577z"/>
			<path id="Path_3_" class="st105" d="M616.1,1551.7l2.4,4c14,23.7,25.5,44.6,38.7,44.6c12.4,0-14.2,79.4-54.6,93.7l1.4-4.9
				c6.4-22.2,8.7-35.3,6.8-39.2c-20.6-43.3-19.3-83.2-24-109.7C599.8,1536.9,609.5,1540.7,616.1,1551.7z"/>
			<path id="Path_4_" class="st98" d="M602.4,1282.4c7.1,4.9,13.2,11.1,17.9,18.8c19.3,31.3,46.6,59.4,81.8,84.5l21,4.6
				c4.6,1,9.2,2,13.7,3c-29.9,5.5-72.9-10.5-73.9,18.8l0,1c0,39.9-60,50.5-102.6,36c-42.2-14.4-39.2-60-25-87.2l0.4-0.8
				c9.7-18.1,7.4-41.9-6.8-71.3c20.2,21.3,27.1,44.6,21,69.8l-1,3.8c-9.5,37.7-3.8,70.7,39.9,70.7c42.8,0,55.7-80.9,15.2-149
				L602.4,1282.4z"/>
			<circle id="Oval" class="st107" cx="692" cy="1359.5" r="15.5"/>
			<circle id="Oval_1_" class="st98" cx="338.4" cy="1389" r="19.3"/>
			<path id="Path_5_" class="st56" d="M666.6,1357c10.7,10,22.5,19.5,35.4,28.7l4.9,1.1l0,0l-4.6,6.2
				c-44,59.8-84.5,102.6-121.4,128.4c-6.2-11.2-15.4-24.6-28.6-36.8c56.6-35.8,94.5-77.9,113.7-126.2L666.6,1357z"/>
			<circle id="Oval_2_" class="st98" cx="469.8" cy="1350.4" r="11.6"/>
			<circle id="Oval_3_" class="st105" cx="910.3" cy="1590" r="23.2"/>
			<path id="Path-92" class="st105" d="M835.7,1629c22.6-7.7-1.3,24.1,41.4,19.5c42.6-4.6,41.5-25.5,78.5,0
				c37,25.5-17.2,13.1-35.5,28.3s-62.7,38.7-73.5,19.4C835.7,1676.8,813.1,1636.7,835.7,1629z"/>
			<path id="Path-10" class="st11" d="M704,1349.9c173,14.4,230.7-49,173-190.2c-86.5-211.8-67.4-330.1,91.1-378.1"/>
		</g>
		<g id="Group-7" transform="translate(105.000000, 0.000000)">
			<g id="Group" transform="translate(0.936288, 169.193500)">
				
					<g id="Group-4-Copy" transform="translate(73.375293, 377.089438) scale(-1, 1) rotate(25.000000) translate(-73.375293, -377.089438) translate(10.875293, 338.089438)">
					<polygon id="Path-60" class="st0" points="-248.2,1785 -202.8,1895.6 -69.5,1827.2 -117.8,1709.2 					"/>
					<path id="Path-58" class="st4" d="M-219.6,1849.4l143.2-63.2c3.6-1.6,7.7-0.3,9.7,3.1l12.4,20.4c9.6,15.9,27.9,24.4,46.2,21.5
						l192.2-30c15.5-2.4,30.8,5.5,37.7,19.7c6,12.3,0.9,27.2-11.4,33.2c-0.5,0.2-0.9,0.4-1.4,0.6l-325.6,135.2
						c-25.6,10.6-55-1.5-65.7-27.1c-0.1-0.2-0.2-0.4-0.2-0.6l-41.2-102.8C-225.2,1855.5-223.4,1851.1-219.6,1849.4z"/>
					<path id="Path-59" class="st3" d="M-167.2,1825.4l16,34.2c8.2,17.5,28.8,25.3,46.5,17.7c17.7-7.5,26-27.9,18.6-45.6l-14.6-35.3
						l0,0"/>
				</g>
				<path id="Path-97" class="st4" d="M1239.6,540.8c-211.2,519.8-348.9,964.9-413.4,1335.4h340.4
					c16.4-326.3,79.1-579.5,188.2-759.4C1463.8,936.9,1425.4,744.9,1239.6,540.8z"/>
				<path id="Path_6_" class="st65" d="M1239.6,540.8c185.8,204.1,224.2,396.1,115.2,576c-69,113.9-119.5,257.1-151.4,429.7
					L1239.6,540.8z"/>
				
					<g id="Group-4" transform="translate(228.511419, 376.643138) scale(-1, 1) rotate(25.000000) translate(-228.511419, -376.643138) translate(167.011419, 336.643138)">
					<polygon id="Path-60_1_" class="st0" points="-645.9,1971.4 -610.5,2086.8 -477.2,2018.3 -515.5,1895.7 					"/>
					<path id="Path-58_1_" class="st4" d="M-627.4,2040.6l143.2-63.2c3.6-1.6,7.7-0.3,9.7,3.1l12.4,20.4
						c9.6,15.9,27.9,24.4,46.2,21.5l192.2-30c15.5-2.4,30.8,5.5,37.7,19.7c6,12.3,0.9,27.2-11.4,33.2c-0.5,0.2-0.9,0.4-1.4,0.6
						L-524.3,2181c-25.6,10.6-55-1.5-65.7-27.1c-0.1-0.2-0.2-0.4-0.2-0.6l-41.2-102.8C-633,2046.6-631.2,2042.2-627.4,2040.6z"/>
					<path id="Path-59_1_" class="st3" d="M-575,2016.6l16,34.2c8.2,17.5,28.8,25.3,46.5,17.7c17.7-7.5,26-27.9,18.6-45.6
						l-14.5-35.3l0,0"/>
				</g>
				<path id="Path-96" class="st4" d="M1469.2,1876.2H1797l-216-1154c-10.4-55.4-32.7-107.9-65.5-153.7l-19.8-27.7l0,0h-256
					L1469.2,1876.2z"/>
				<line id="Path-7" class="st5" x1="1365.6" y1="590.8" x2="1589.8" y2="1872.6"/>
				<line id="Path-7-Copy" class="st5" x1="1421.2" y1="590.8" x2="1645.4" y2="1872.6"/>
			</g>
			<g id="Group-5" transform="translate(58.976065, 0.000000)">
				<path id="Path-90" class="st71" d="M1193.4,174.3l-14.1-25.8c-6.8-12.4-9.8-26.5-8.6-40.6l0,0c0.8-10.2,9.7-17.7,19.9-16.9
					c1,0.1,1.9,0.2,2.9,0.5l0,0l0,0c4.7-21.3,23.7-33,56.9-35c62.6-3.8,83.7,33.6,106.9,71.3l17.5,3.8
					c67.2,15.7,108.5,76,123.7,180.9c15.3,105-21.6,138.7-110.4,101.2l-49.8-13.3c59-121.7,66.9-199.8,23.7-234.4
					c-13.1,50.4-45,78.2-95.7,83.4C1215.6,254.5,1191.3,229.5,1193.4,174.3z"/>
				
					<g id="Group-11" transform="translate(49.131579, 193.687088) scale(-1, 1) translate(-49.131579, -193.687088) translate(0.631579, 119.187088)">
					<path id="Path-71" class="st0" d="M-949.7,413l40.9,138.3c7.9,26.8,18.7,52.6,32.2,77l117,212.1c5.8,10.5,14.5,19,25,24.6
						c10.7,5.6,20.1,13.4,27.6,22.8l1.5,1.9c6.5,8.1,6,19.8-1.2,27.3l0,0l0,0c6,13.5,1.7,29.4-10.2,38c-24.8,17.9-45.1,22.3-60.9,13
						c-14.8-8.7-24.1-26-27.9-52c-3.2-21.8-12-42.3-25.5-59.7l-123.1-158.4c-8.8-11.3-16.9-23-24.4-35.2l-89.5-146.1l0,0l27.4-118.8
						L-949.7,413z"/>
					<path id="Path-75" class="st11" d="M-706.7,916.9l-29.3,15c-11.2-10.2-10.5-20.4,1.8-30.6c-20.9,11.5-38.7,10.1-53.4-4.1"/>
					<path id="Path-76" class="st11" d="M-743.7,910.7c-6.3,3.8-8.3,11.9-4.6,18.2l13.9,23.9l0,0l-20.3-27.3
						c-2.8-3.7-7.8-4.8-11.8-2.5c-3.9,2.2-5.3,7.1-3.2,11l14.2,26.1l0,0l-1,0.8l-19.4-23.5c-2.7-3.3-7.4-4.2-11.2-2.1
						c-3.5,2-4.8,6.4-2.9,10c0,0,0,0,0,0.1l10.3,18.3l0,0"/>
					<line id="Path-78" class="st11" x1="-893.1" y1="587.6" x2="-922.7" y2="608"/>
					<path id="Path-81" class="st11" d="M-801.7,937.2c2.4-22.9,21.8-31.7,58-26.5"/>
				</g>
				<g id="Group-4_1_" transform="translate(58.143139, 61.943824)">
					<path id="Path-93" class="st108" d="M1418.8,500h67.9l-79.9-205.5c-8.2-21.2-25.4-37.8-46.9-45.2c-22.4-7.8-46-11.8-69.8-11.8
						h-83.5l0,0l-93.6,9.4c-16.8,1.7-32.6,8.8-45,20.3c-12.6,11.7-22.8,25.7-30.1,41.2l-82.8,175.9l0,0l123.8,18
						c4.1,37,16.2,63.7,36.3,79.9l-14.2,94.7c20.1,15,65.8,22.4,137.1,22.4s127.7-7.5,169-22.4L1418.8,500z"/>
					<path id="Path_7_" class="st73" d="M1290.2,237.5c8.4,0,9-0.2,17.3,0.8c-30.1,67.4-34.1,162.8-27.4,284.6h-45.3l0.4-8.6
						c6.4-138.9,22.1-231.2,47-276.8L1290.2,237.5z"/>
					<path id="Path_8_" class="st65" d="M1108.8,397.3c-7,33.2-17.2,67.2-29.7,105l-21.1-3.1L1108.8,397.3z"/>
					<path id="Path_9_" class="st109" d="M1316.8,416.3l31.6,84.8l58.8,47.8l0,128.1c-40.6,14.7-95.8,22.2-165.4,22.4l-3.6,0
						c-70.3,0-103.6-7.3-135.7-21.8l-1.4-0.7l14-92.9c36.9,1.8,115.2,20.9,171-0.2C1327.1,568.4,1335.8,488.8,1316.8,416.3z"/>
					<path id="Path-Copy" class="st65" d="M1316.8,416.3l31.6,84.8l58.8,47.8l0,128.1c-40.6,14.7-176.9-71.9-121.1-93
						C1327.1,568.4,1335.8,488.8,1316.8,416.3z"/>
					<path id="Path-6" class="st73" d="M1227.1,522.9l-40,313.3c-8.8,68.7,32.1,134.1,97.8,156.3c70.6,23.8,148.3,10.9,207.4-34.5
						l37.1-28.5c57.3-44,75.7-122.4,43.8-187.2l0,0l0,0l-159.8-240l-31.3,97.3l-76.1-10L1227.1,522.9z"/>
					<path id="Path_10_" class="st74" d="M1411.6,508c2.3,0.5,4.5,1.1,6.8,1.7l154.8,232.6l0.9,2c0.5,1.1,1,2.2,1.5,3.3
						c-30.3,73.5-118.9,106.6-211.8,46.4c-69-44.7-117.3-113.4-145.1-206.1l8.3-65l78.9,66.7l76.1,10L1411.6,508z"/>
					<path id="Path-8" class="st3" d="M1307.5,238.3c-31.6,90.2-39.4,190.4-23.4,300.8"/>
					<path id="Path-9" class="st3" d="M1221,557.8c-8.4,72.1-14.8,122.5-19,151c-17.9,121.7-21.4,192.3,6.5,223.1"/>
				</g>
				<g id="Group_1_" transform="translate(100.826409, 13.124975)">
					<path id="Path_11_" class="st13" d="M1256.4,114.7l17.5,3.8c1.6,0,3.2,0,4.8,0.2c3.2,15.3,1.6,31.3-4.7,48
						c-3.6-5.1-7.9-9.7-12.9-13.7c0.2-14.7-1.2-27-4.4-36.9L1256.4,114.7z"/>
					<path id="Path-89" class="st0" d="M1089.5,115.2L1087,212c-0.3,11.4,5.2,22.3,14.6,28.8l1.9,1.3c8.6,6,18.8,9.2,29.2,9.2l0,0
						l0,0v48c0,17.9,14.5,32.4,32.4,32.4c2.6,0,5.1-0.3,7.6-0.9c23.6-5.7,40.6-26.4,41.6-50.7l3.9-97.7l0,0
						c17.2-11.5,22.9-22,17.1-31.6c-5.8-9.5-16.1-8.1-30.7,4.4c-40.5-14.4-69.8-30.4-87.9-47.8S1089.4,92.5,1089.5,115.2
						L1089.5,115.2z"/>
					<path id="Path_12_" class="st68" d="M1188.7,228.8c-21.7,34.9-40.4,57.2-56.1,66.9l0-44.5l-1.4,0c-0.7,0-1.3,0-2-0.1
						C1146.3,250,1166.1,242.6,1188.7,228.8z"/>
					<path id="Path-91" class="st11" d="M1209.8,160.6c5.5-6.3,10.9-8.8,16-7.5c5.3,1.4,5.2,7.1,2.6,10.7"/>
					<path id="Path-2" class="st13" d="M1109.1,210.8h31.6c-4.9,11.3-10.7,16.6-17.5,15.8C1116.5,225.7,1111.8,220.5,1109.1,210.8z"
						/>
					<path id="Path-3" class="st11" d="M1119,160.3l-3.4,13.9c-0.9,3.6-2.6,7-5,9.9l-1,1.1c-1.8,2.1-2.7,4.7-2.7,7.4
						c0,2.3,1.9,4.2,4.2,4.2h16.4l0,0"/>
					<ellipse id="Oval_4_" class="st4" cx="1139" cy="158.8" rx="4.7" ry="4.8"/>
					<g id="Group-11_1_" transform="translate(0.000000, 11.969328)">
						<ellipse id="Oval_5_" class="st11" cx="1143.8" cy="148.4" rx="18.9" ry="19"/>
						<ellipse id="Oval-Copy-2" class="st11" cx="1096.4" cy="148.4" rx="18.9" ry="19"/>
						<line id="Path-4" class="st11" x1="1114" y1="148.4" x2="1123.3" y2="148.4"/>
						<line id="Path-5" class="st11" x1="1162" y1="146.8" x2="1206.9" y2="135.9"/>
					</g>
					<path id="Rectangle-Copy-2" class="st4" d="M1132.6,128.3l21.9,3.5c1.8,0.3,3.1,2,2.8,3.8c0,0,0,0,0,0.1
						c-0.3,1.9-2.1,3.1-3.9,2.8l-21.9-3.5c-1.8-0.3-3.1-2-2.8-3.8c0,0,0,0,0-0.1C1129,129.3,1130.7,128,1132.6,128.3z"/>
					<path id="Rectangle-Copy-3" class="st4" d="M1102.9,128.3l-21.9,3.5c-1.8,0.3-3.1,2-2.8,3.8c0,0,0,0,0,0.1
						c0.3,1.9,2.1,3.1,3.9,2.8l21.9-3.5c1.8-0.3,3.1-2,2.8-3.8c0,0,0,0,0-0.1C1106.5,129.3,1104.7,128,1102.9,128.3z"/>
					<ellipse id="Oval-Copy" class="st4" cx="1098" cy="158.8" rx="4.7" ry="4.8"/>
				</g>
				<g id="Group-2" transform="translate(103.454081, 98.149259)">
					<path id="Path-95" class="st0" d="M1092.5,449.4l-4.1-7.6c-2-3.6-1.4-8,1.3-11c1.9-2.1,5.1-2.3,7.3-0.4
						c0.4,0.3,0.7,0.7,0.9,1.1l2.4,3.9c4,6.5,8.8,12.4,14.4,17.5l23.9,22.3l0,0l-10.9-14.1c-11-14.1-20.1-29.5-27.4-45.9l-8.4-19
						c-1.5-3.3-0.5-7.1,2.4-9.3c2.4-1.9,5.9-1.4,7.8,1c0.1,0.1,0.2,0.3,0.3,0.4l12.9,20.7c5.4,8.7,11.2,17.2,17.3,25.5l10.1,13.6
						l0,0l-8.7-23.2c-2.2-5.9-4.6-11.8-7-17.5l-19.9-46.3c-1.7-3.9-0.4-8.5,3.2-10.9c3.1-2.1,7.2-1.3,9.3,1.8
						c0.1,0.2,0.2,0.4,0.4,0.6l14.7,27.4c7.4,13.7,16.2,26.6,26.3,38.5l0,0l0,0l-6.7-16.1c-0.8-2-1.7-4-2.5-6l-17.4-43.5
						c-1.6-4-0.4-8.6,3.1-11.2c2.7-2.1,6.6-1.6,8.8,1.1c0.2,0.3,0.4,0.5,0.5,0.8l26.4,48.3c0.7,1.2,1.4,2.5,2.1,3.7l20.7,36.9l0,0
						l1.5-7.2c1.2-6,1.3-12.2,0.2-18.3c-1.1-6-0.3-12.1,2.3-17.6l2.3-4.8c1.1-2.4,4-3.4,6.3-2.3c1.4,0.7,2.4,1.9,2.6,3.4l3.1,16.4
						c1.2,6.2,2.2,12.4,3.1,18.7l6.6,46.9l0,0l96.5,64.6l-19.6-69.6h128.3l39.1,163c5.4,22.4,1.4,46-10.9,65.4
						c-11.5,18-33.4,26.4-54,20.6l-3.1-0.9c-24.8-7-47.5-19.9-66.2-37.6l-148.8-141.2c-7.3-6.9-14.9-13.5-22.7-19.8l-50.1-40
						C1104,466.2,1097.4,458.3,1092.5,449.4z"/>
					<path id="Path-94" class="st11" d="M1286.9,512.1l33.2,20.4c49.5,25,82.2,52.4,97.9,82.2"/>
				</g>
			</g>
		</g>
	</g>
</g>
</svg>
